<?xml version="1.0" standalone="no"?>
<!DOCTYPE svg PUBLIC "-//W3C//DTD SVG 20010904//EN"
 "http://www.w3.org/TR/2001/REC-SVG-20010904/DTD/svg10.dtd">
<svg version="1.0" xmlns="http://www.w3.org/2000/svg"
 width="539.000000pt" height="463.000000pt" viewBox="0 0 539.000000 463.000000"
 preserveAspectRatio="xMidYMid meet">
<g transform="translate(0.000000,463.000000) scale(0.100000,-0.100000)"
fill="#000000" stroke="none">
<path d="M1808 4190 c-24 -25 -29 -37 -27 -70 3 -37 -1 -45 -61 -105 -62 -62
-63 -65 -45 -80 11 -8 24 -15 28 -15 4 0 35 27 70 59 54 53 65 59 92 54 16 -3
30 -6 31 -7 1 -1 27 -36 58 -79 54 -73 56 -78 41 -99 -20 -30 -19 -66 4 -105
23 -37 66 -50 116 -33 30 10 40 9 63 -6 43 -29 120 -104 158 -156 36 -49 69
-62 80 -33 12 32 -121 183 -207 236 -21 13 -39 27 -39 31 0 3 38 9 85 13 l85
7 0 35 c0 26 -4 34 -14 30 -7 -3 -50 -9 -95 -12 -59 -6 -81 -4 -81 4 0 13 -60
42 -72 35 -8 -5 -128 153 -128 167 0 19 25 19 93 0 95 -26 195 -71 279 -127
65 -44 68 -47 68 -86 0 -48 43 -98 85 -98 94 0 139 98 75 162 -28 27 -36 30
-77 25 -41 -4 -51 -1 -107 38 -105 73 -296 155 -362 155 -18 0 -29 9 -41 34
-30 63 -105 76 -155 26z m120 -43 c12 -24 11 -31 -2 -53 -19 -28 -60 -32 -88
-7 -20 18 -23 45 -7 74 17 32 80 23 97 -14z m7 -117 c10 -11 16 -20 13 -20 -3
0 -13 9 -23 20 -10 11 -16 20 -13 20 3 0 13 -9 23 -20z m-200 -50 c-10 -11
-22 -20 -28 -20 -5 0 1 9 14 20 31 25 37 25 14 0z m279 -56 c9 -24 2 -26 -12
-4 -7 11 -8 20 -3 20 5 0 12 -7 15 -16z m531 -73 c-1 -33 -40 -72 -64 -63 -9
3 -11 0 -6 -8 6 -9 4 -11 -4 -6 -7 5 -10 15 -6 23 4 13 3 13 -8 4 -20 -16 -33
3 -40 57 -5 45 -7 43 58 55 33 6 71 -27 70 -62z m-429 -16 c27 -27 26 -59 -4
-82 -57 -45 -123 36 -72 87 27 27 46 25 76 -5z"/>
<path d="M2440 3820 c-9 -6 -10 -10 -3 -10 6 0 15 5 18 10 8 12 4 12 -15 0z"/>
<path d="M1622 4139 c-104 -17 -313 -101 -364 -146 -12 -11 -21 -12 -37 -4
-33 18 -78 13 -108 -13 -24 -21 -28 -32 -28 -75 0 -42 -5 -55 -31 -83 -94
-100 -179 -248 -220 -380 -12 -40 -23 -58 -34 -58 -9 0 -28 -13 -43 -28 -38
-40 -37 -94 1 -130 27 -25 29 -34 35 -128 16 -237 109 -454 269 -629 l55 -59
17 27 18 27 -63 69 c-141 152 -219 339 -235 564 l-7 88 36 33 c28 26 37 42 38
67 0 32 7 38 92 93 89 57 91 58 118 42 39 -23 82 -20 112 8 32 30 43 70 28
103 -9 20 -8 29 8 51 36 50 112 113 194 160 l39 22 25 -20 c14 -11 36 -20 48
-20 32 0 88 41 95 70 6 25 6 25 128 25 120 0 123 0 129 23 3 13 2 26 -2 30 -3
4 -65 7 -136 8 -104 1 -133 4 -147 17 -29 27 -76 32 -110 12 -26 -16 -38 -17
-106 -6 -113 16 -116 16 -116 -18 0 -29 1 -29 74 -36 75 -7 114 -21 88 -32
-42 -17 -165 -110 -215 -162 -32 -34 -60 -61 -63 -61 -2 0 -4 51 -4 114 0 103
2 114 19 119 26 6 52 50 54 89 2 31 7 35 97 80 91 46 269 98 333 98 23 0 27 4
27 30 0 34 -9 35 -108 19z m-405 -181 c13 -4 26 -2 29 3 3 5 11 9 17 9 7 0 6
-4 -3 -10 -8 -5 -15 -19 -15 -32 -1 -13 -7 -33 -14 -45 -6 -13 -8 -23 -4 -23
4 -1 -8 -9 -27 -19 -30 -16 -37 -17 -54 -5 -16 11 -23 11 -35 1 -12 -10 -13
-9 -7 2 5 7 10 30 10 50 3 64 16 85 49 75 10 -3 17 0 17 8 0 9 3 9 8 2 4 -6
17 -13 29 -16z m390 -80 c15 -6 31 -11 34 -10 3 1 5 -10 4 -23 -2 -17 1 -22
12 -18 12 5 12 7 1 14 -9 6 -6 8 9 6 22 -1 22 -1 3 -22 -11 -12 -20 -25 -20
-29 0 -5 -9 -16 -20 -26 -22 -19 -61 -16 -96 7 -11 7 -24 10 -27 6 -10 -9 -8
10 2 26 5 8 17 16 27 17 34 5 45 45 11 43 -9 0 -9 -2 1 -6 6 -2 12 -9 12 -14
0 -4 -7 -5 -17 -2 -10 4 -14 2 -10 -4 5 -7 0 -9 -13 -6 -19 5 -19 6 3 23 12 9
29 20 37 23 8 3 16 6 17 6 1 1 14 -4 30 -11z m-467 -175 c0 -111 -2 -119 -24
-140 -13 -13 -26 -35 -29 -50 -5 -22 -28 -42 -99 -88 -51 -33 -96 -61 -100
-63 -24 -11 11 109 60 208 51 101 160 250 183 250 5 0 9 -52 9 -117z m80 -163
c11 -11 20 -30 20 -42 0 -53 -74 -79 -104 -36 -21 30 -20 47 6 75 26 28 52 29
78 3z m-125 -80 c-3 -5 -12 -10 -18 -10 -7 0 -6 4 3 10 19 12 23 12 15 0z
m-70 -50 c-3 -5 -12 -10 -18 -10 -7 0 -6 4 3 10 19 12 23 12 15 0z m-40 -20
c-3 -5 -12 -10 -18 -10 -7 0 -6 4 3 10 19 12 23 12 15 0z m-64 -43 c-10 -9
-11 -8 -5 6 3 10 9 15 12 12 3 -3 0 -11 -7 -18z m-49 -20 c13 -20 9 -65 -8
-81 -52 -52 -126 32 -77 87 19 20 70 17 85 -6z m-45 -279 c-3 -8 -6 -5 -6 6
-1 11 2 17 5 13 3 -3 4 -12 1 -19z m148 -418 c10 -11 16 -20 13 -20 -3 0 -13
9 -23 20 -10 11 -16 20 -13 20 3 0 13 -9 23 -20z"/>
<path d="M1203 3895 c0 -8 4 -15 9 -15 4 0 8 4 8 9 0 6 -4 12 -8 15 -5 3 -9
-1 -9 -9z"/>
<path d="M1613 3841 c0 -11 5 -18 9 -15 4 3 5 11 1 19 -7 21 -12 19 -10 -4z"/>
<path d="M3265 4130 c-199 -43 -415 -169 -543 -318 -157 -181 -235 -379 -252
-637 -10 -146 -26 -218 -72 -314 -34 -72 -44 -83 -70 -75 -22 7 -74 -21 -88
-45 -20 -39 -12 -90 20 -121 l30 -29 -44 -113 c-39 -100 -47 -113 -70 -116
-35 -4 -86 -54 -86 -85 0 -21 -8 -27 -62 -43 -52 -16 -95 -19 -238 -19 l-175
0 -139 48 c-76 26 -141 47 -143 47 -2 0 2 -6 9 -14 7 -8 15 -14 18 -13 3 0 16
-4 30 -10 14 -6 41 -17 61 -26 36 -15 60 -37 40 -37 -5 0 -11 4 -13 9 -1 6
-16 12 -31 15 -16 3 -35 10 -42 16 -8 7 -20 8 -26 4 -8 -4 -9 -3 -5 4 5 8 0
12 -13 12 -11 0 -22 4 -25 9 -3 5 -17 11 -31 13 -13 3 -22 2 -20 -2 3 -5 -2
-11 -11 -14 -24 -9 -54 -7 -54 4 0 6 -7 10 -16 10 -8 0 -13 4 -9 9 3 5 -2 16
-10 25 -11 11 -13 24 -8 43 l7 28 7 -25 7 -25 1 26 c1 14 7 31 14 38 10 11 10
13 -1 7 -6 -4 -12 -3 -12 3 0 15 18 23 25 11 4 -6 11 -7 17 -4 8 5 9 1 4 -12
-6 -15 -5 -17 5 -6 15 14 33 16 24 3 -3 -5 0 -13 6 -17 8 -4 9 -3 5 4 -4 7 -3
12 2 12 13 0 33 -26 26 -33 -11 -10 60 -25 73 -15 8 6 19 5 30 -2 14 -9 14
-10 2 -7 -9 3 -27 -2 -40 -11 -13 -9 -26 -16 -29 -15 -3 1 -7 -1 -9 -3 -11
-10 48 -2 149 22 88 21 110 29 106 41 -3 8 -6 19 -6 24 0 14 -37 11 -142 -13
l-98 -22 -34 33 c-20 20 -41 31 -49 28 -17 -6 -19 1 -38 146 -7 49 -18 95 -25
102 -7 7 -10 16 -6 19 3 4 -1 4 -10 1 -11 -5 -17 1 -20 22 -3 15 -9 37 -13 48
-7 16 -4 15 14 -5 15 -17 21 -19 17 -8 -3 10 -1 20 4 23 11 7 14 -5 12 -45 -1
-19 1 -21 8 -10 5 8 6 18 4 22 -3 4 -1 8 5 8 17 0 24 -22 10 -32 -11 -8 -10
-9 3 -4 10 3 20 0 24 -6 4 -7 3 -8 -4 -4 -7 4 -12 2 -12 -4 0 -6 -5 -8 -11 -4
-31 19 18 -40 78 -96 78 -71 160 -119 255 -151 55 -17 69 -27 79 -51 15 -37
62 -62 103 -55 29 5 117 -18 243 -63 l51 -19 6 22 c3 12 6 26 6 31 1 9 -133
56 -199 71 -27 6 -44 24 -23 25 117 7 213 34 325 93 78 41 93 62 62 87 -11 9
-25 5 -72 -24 -70 -43 -183 -83 -262 -92 -55 -6 -59 -5 -88 25 -40 40 -88 42
-131 6 -30 -25 -31 -25 -69 -9 -156 65 -237 121 -323 224 -40 48 -41 49 -26
79 25 47 20 88 -13 122 -17 17 -40 29 -55 29 -21 0 -27 7 -37 43 -16 56 -15
229 0 295 8 29 11 55 9 57 -2 3 -15 6 -28 7 -22 3 -26 -3 -38 -47 -7 -27 -15
-82 -19 -120 -6 -76 12 -211 29 -222 7 -4 8 -1 3 7 -4 7 -2 16 5 20 9 6 9 12
0 29 -6 12 -13 50 -15 84 -3 61 -3 61 6 17 5 -25 15 -65 21 -90 6 -25 10 -57
9 -72 -1 -16 4 -28 9 -28 6 0 8 5 4 12 -5 7 -3 8 5 3 10 -5 10 -10 1 -19 -8
-8 -15 -7 -24 7 -12 16 -14 16 -20 2 -3 -9 -2 -14 3 -11 5 3 11 -1 15 -9 3 -9
0 -15 -9 -15 -8 0 -13 -6 -11 -12 1 -7 1 -10 -1 -6 -3 4 -5 11 -6 15 0 5 -7
14 -14 22 -11 11 -11 16 -1 30 11 14 11 14 -3 4 -13 -11 -19 -10 -33 5 -9 10
-13 22 -10 25 4 4 0 9 -9 13 -9 3 -13 12 -10 21 5 12 3 14 -7 8 -9 -6 -11 -4
-5 5 7 11 11 10 19 -4 21 -33 44 -57 49 -49 9 14 -121 188 -139 188 -9 0 -21
-7 -27 -16 -7 -12 8 -39 68 -120 42 -57 81 -103 86 -102 4 2 6 -3 3 -11 -3 -8
-1 -17 5 -21 6 -3 11 -22 11 -42 0 -29 8 -43 39 -72 33 -32 39 -43 45 -96 3
-33 13 -107 20 -165 12 -88 13 -107 1 -120 -67 -74 27 -197 115 -150 15 8 31
5 67 -13 68 -34 156 -63 252 -82 110 -23 345 -17 439 10 51 15 68 16 83 7 59
-37 149 11 149 80 0 41 -8 54 -43 67 -25 10 -38 31 -18 31 8 0 17 21 26 59 2
8 10 18 17 22 11 7 11 9 0 9 -10 0 -10 4 2 16 9 8 16 18 17 22 5 40 12 68 19
77 5 6 8 20 6 31 -2 10 -1 13 1 5 4 -11 7 -11 13 -1 5 8 9 9 14 1 4 -6 3 -11
-3 -11 -6 0 -8 -6 -5 -14 3 -7 -2 -16 -11 -20 -9 -3 -14 -10 -10 -16 3 -5 -1
-22 -9 -38 -8 -16 -12 -32 -9 -36 4 -3 1 -6 -5 -6 -6 0 -9 -7 -6 -15 4 -8 1
-15 -6 -15 -7 0 -10 -6 -7 -14 3 -8 1 -16 -4 -18 -6 -2 -11 -12 -13 -21 -1
-10 -8 -22 -15 -26 -9 -6 -7 -10 7 -13 16 -5 22 2 33 36 7 22 22 64 34 91 12
28 30 71 39 97 10 26 25 50 36 53 10 3 23 18 29 33 9 20 36 39 111 75 55 27
100 52 100 55 -1 12 -27 42 -36 42 -11 0 -144 -68 -162 -82 -7 -6 -10 -13 -7
-16 2 -3 11 0 18 6 10 9 14 8 14 -3 0 -8 -3 -13 -5 -10 -3 3 -11 -3 -18 -13
-12 -14 -15 -15 -23 -3 -6 10 -6 22 0 33 5 10 6 18 2 18 -4 0 -1 6 8 13 36 27
86 153 109 277 14 74 49 110 106 110 26 0 51 -7 67 -20 27 -21 48 -76 42 -107
-13 -63 -17 -73 -31 -73 -25 0 -64 -50 -64 -82 0 -17 7 -42 16 -57 16 -26 15
-30 -30 -110 -74 -134 -173 -246 -293 -329 -29 -21 -31 -25 -21 -47 6 -14 14
-25 17 -25 3 0 36 23 72 50 120 90 229 220 298 358 23 46 37 62 52 62 11 0 34
13 50 29 38 39 40 91 4 127 -24 24 -25 28 -16 87 6 34 12 105 15 157 13 214
104 390 266 515 373 287 936 92 1056 -365 20 -77 23 -263 4 -330 -61 -226
-229 -406 -444 -478 -96 -32 -253 -40 -356 -18 -87 18 -190 67 -285 136 -37
27 -83 52 -102 56 -75 14 -157 -39 -182 -117 -34 -106 57 -212 274 -319 131
-66 228 -90 386 -97 199 -9 353 22 511 102 158 81 319 230 399 371 73 129 118
257 138 391 61 409 -154 823 -529 1020 -150 79 -245 103 -435 108 -123 4 -166
1 -240 -15z m260 -14 c16 -6 17 -6 5 3 -12 8 -3 11 35 11 38 0 46 -3 35 -11
-11 -8 -7 -9 18 -4 18 4 32 2 32 -3 0 -5 12 -9 28 -9 33 -1 133 -27 158 -42
11 -5 15 -11 11 -11 -5 0 -5 -5 -1 -11 5 -8 8 -8 14 0 5 8 14 8 35 -3 16 -8
33 -12 39 -9 6 4 3 -3 -8 -15 -18 -21 -18 -21 13 -17 21 3 38 -2 50 -13 10 -9
24 -18 32 -20 26 -6 79 -53 73 -64 -5 -7 -1 -9 9 -5 16 6 41 -14 32 -26 -3 -4
-2 -5 2 -2 10 8 33 -16 26 -28 -3 -5 -2 -7 4 -4 16 10 67 -49 59 -70 -4 -9 -4
-14 0 -10 10 10 35 -13 27 -26 -3 -6 -1 -7 5 -3 14 9 75 -83 67 -102 -2 -7 -1
-11 3 -9 7 5 26 -11 31 -28 8 -22 24 -62 37 -90 7 -16 13 -39 13 -50 -1 -11 6
-37 15 -57 12 -29 13 -38 4 -38 -10 0 -10 -2 0 -8 7 -5 10 -16 6 -25 -3 -9 -2
-17 4 -17 14 0 21 -73 8 -82 -8 -6 -7 -11 3 -17 10 -7 12 -26 6 -87 -3 -44 -6
-94 -5 -113 1 -26 -3 -32 -15 -28 -8 4 -15 2 -15 -2 0 -5 5 -11 10 -13 6 -2 8
-17 4 -36 -5 -24 -9 -30 -15 -20 -6 8 -9 -4 -9 -32 0 -28 -8 -56 -20 -75 -11
-16 -20 -39 -20 -50 -1 -18 -2 -17 -15 5 -14 25 -14 25 -9 -10 5 -28 3 -32 -6
-20 -9 12 -10 11 -5 -7 8 -28 -20 -83 -43 -83 -11 0 -13 -3 -5 -8 8 -5 9 -13
3 -22 -6 -10 -10 -11 -10 -3 0 7 -10 17 -22 23 -21 10 -21 10 -5 -3 18 -15 24
-57 8 -57 -5 0 -12 -9 -16 -19 -4 -12 -12 -18 -21 -14 -10 4 -12 0 -7 -13 4
-11 3 -15 -5 -10 -6 3 -16 -3 -22 -14 -6 -11 -7 -20 -3 -20 4 0 -3 -7 -15 -16
-18 -12 -26 -13 -37 -4 -9 8 -15 8 -15 2 0 -6 6 -12 13 -15 15 -6 -52 -78 -69
-74 -7 1 -13 -2 -13 -7 0 -18 -88 -59 -104 -49 -7 4 -5 -2 3 -12 14 -17 13
-18 -2 -12 -10 3 -20 2 -23 -3 -3 -5 -12 -7 -20 -3 -9 3 -15 -1 -15 -10 0 -10
-21 -21 -60 -33 -33 -10 -60 -21 -60 -26 0 -4 -5 -8 -11 -8 -5 0 -7 5 -3 11 3
6 -8 3 -25 -6 -17 -9 -36 -13 -40 -10 -5 3 -11 -1 -13 -7 -7 -21 -359 -16
-421 5 -26 9 -51 16 -55 15 -4 -1 -20 4 -35 10 -16 7 -33 12 -38 12 -5 0 -9 6
-10 13 0 8 -2 8 -5 1 -3 -7 -14 -10 -24 -7 -11 3 -17 9 -14 14 3 5 -2 9 -10 9
-9 0 -16 5 -16 11 0 5 -4 8 -9 4 -5 -3 -13 0 -16 6 -4 5 -14 8 -23 4 -9 -3
-13 -3 -9 1 4 4 -16 20 -45 36 -29 16 -56 35 -61 44 -4 8 -12 12 -18 9 -5 -3
-6 0 -3 8 3 8 0 18 -7 23 -8 4 -10 3 -5 -4 12 -20 -2 -13 -29 14 -14 14 -26
35 -28 47 -1 12 -5 24 -9 27 -14 11 -16 60 -3 74 8 7 12 16 8 19 -3 3 9 21 27
39 18 18 29 26 25 18 -5 -8 2 -5 13 7 18 18 31 21 69 18 26 -1 49 -8 51 -14 2
-6 8 -11 12 -11 12 0 94 -56 110 -75 7 -8 17 -12 23 -8 5 3 7 1 4 -4 -4 -6 25
-22 68 -38 49 -18 73 -31 68 -39 -4 -6 2 -4 12 4 11 9 16 10 11 3 -5 -9 0 -13
16 -13 13 0 46 -3 73 -8 58 -9 120 -8 202 4 32 4 63 8 68 9 6 0 15 3 20 7 6 3
22 4 37 3 21 -3 25 0 21 12 -5 12 -3 14 6 8 7 -4 16 -4 20 1 7 11 61 38 76 39
6 0 15 7 21 15 10 12 14 12 30 0 17 -14 18 -14 6 2 -15 18 -9 38 11 38 9 0 9
-2 0 -8 -8 -5 -7 -12 4 -27 15 -19 15 -19 8 4 -5 16 -4 21 4 17 6 -4 9 -2 6 7
-8 18 30 51 47 41 10 -6 10 -5 2 7 -9 11 -7 19 9 34 l20 20 -11 -21 c-8 -15
-8 -21 1 -21 7 0 13 11 14 25 1 25 21 45 35 36 4 -3 5 2 2 10 -3 9 -1 16 5 16
6 0 10 3 9 8 -4 13 23 53 32 47 6 -3 7 1 4 9 -3 9 1 23 10 31 9 9 16 23 16 31
0 8 5 12 10 9 6 -3 10 -2 10 4 0 5 -6 12 -12 14 -8 3 -5 6 5 6 10 1 15 6 12
11 -3 6 2 10 12 11 11 0 13 3 5 6 -6 2 -9 10 -5 16 23 37 22 337 -1 390 -5 9
-5 24 -2 33 3 8 2 13 -2 10 -4 -2 -14 10 -21 27 -20 50 -54 111 -65 119 -6 4
-5 12 2 21 10 12 9 15 -5 13 -12 0 -17 5 -17 17 2 14 -1 15 -12 6 -11 -9 -14
-8 -14 5 0 9 -7 19 -15 22 -15 6 -16 28 -1 54 7 12 6 12 -4 3 -15 -13 -47 -4
-79 24 -23 19 -27 33 -10 33 5 0 7 -5 3 -12 -4 -7 -3 -8 4 -4 23 14 12 28 -17
21 -17 -3 -32 -2 -36 5 -3 5 -11 8 -16 5 -5 -4 -9 -2 -9 4 0 12 -75 53 -105
58 -11 2 -24 9 -30 16 -5 6 -26 13 -45 14 -19 1 -66 7 -105 13 -72 10 -184 1
-239 -20 -15 -5 -30 -9 -34 -9 -28 4 -52 -2 -46 -13 5 -8 2 -9 -9 -5 -10 3
-17 2 -17 -3 0 -5 -16 -12 -35 -16 -19 -3 -32 -10 -29 -15 5 -9 -9 -13 -35
-10 -8 2 -10 -2 -5 -10 5 -9 2 -10 -11 -5 -16 6 -16 4 -4 -11 12 -15 12 -16
-2 -11 -11 4 -27 -4 -45 -23 -17 -18 -34 -27 -43 -24 -9 3 -12 3 -9 -1 4 -4
-7 -27 -25 -53 -17 -25 -33 -48 -34 -50 -2 -2 -13 4 -25 15 -23 19 -23 19 -5
-2 22 -26 22 -41 0 -23 -15 13 -15 12 -5 -7 12 -22 0 -44 -24 -44 -6 0 -14
-10 -17 -22 -6 -22 -6 -22 8 -4 22 30 18 10 -7 -35 -16 -26 -28 -37 -38 -33
-12 4 -13 3 -2 -7 15 -16 16 -33 0 -23 -7 4 -8 3 -4 -4 4 -6 2 -29 -3 -49 -6
-21 -11 -55 -13 -76 -1 -21 -5 -40 -9 -43 -4 -2 -5 -13 -2 -24 3 -11 0 -33 -6
-50 -7 -22 -7 -29 1 -24 7 5 8 -7 4 -37 -3 -24 -6 -53 -6 -63 -1 -13 -4 -16
-11 -9 -7 7 -6 19 2 36 10 22 9 30 -2 44 -8 10 -21 31 -29 46 -9 18 -25 30
-42 34 -15 3 -28 9 -28 13 0 10 34 8 41 -2 3 -5 9 -3 11 4 4 10 -4 14 -28 15
-19 0 -34 -3 -34 -8 0 -5 -15 -9 -33 -9 -18 0 -38 -5 -45 -12 -7 -7 -12 -9
-12 -4 0 4 -7 1 -15 -8 -8 -8 -15 -18 -15 -21 0 -4 -9 -18 -20 -32 -18 -23
-20 -23 -21 -7 -2 43 3 90 12 101 6 6 6 14 1 17 -5 3 -8 15 -6 28 1 13 3 33 3
46 1 13 5 21 10 17 6 -3 7 9 4 31 -4 22 -2 35 3 31 5 -3 9 12 9 34 0 21 3 39
8 39 5 0 6 7 3 16 -3 9 -2 12 5 8 6 -3 8 -15 6 -26 -3 -11 -3 -17 1 -13 4 4 7
25 8 48 0 23 10 63 22 89 12 26 22 53 22 60 0 10 3 9 11 -2 9 -12 10 -10 6 8
-4 18 -2 21 7 13 10 -8 12 -5 11 12 -2 25 39 93 61 101 18 7 18 1 -1 -17 -13
-13 -13 -16 1 -27 12 -11 13 -10 8 5 -5 12 -4 16 3 12 6 -4 9 4 7 22 -3 22 5
38 31 66 19 20 39 34 44 30 5 -3 13 0 17 6 4 8 3 9 -4 5 -7 -4 -12 -2 -12 3 0
6 10 11 23 12 12 0 17 3 10 5 -7 3 1 17 22 35 25 23 40 29 57 24 18 -5 20 -4
8 4 -13 9 -13 12 3 28 9 9 17 12 17 6 0 -6 -5 -13 -12 -15 -7 -3 -5 -7 6 -11
9 -4 15 -3 11 2 -3 6 3 14 12 20 14 8 15 11 3 11 -8 0 5 10 30 21 24 11 47 24
50 29 8 14 121 61 134 57 6 -2 17 2 24 9 7 7 19 11 26 8 8 -3 31 2 52 11 25
10 40 12 42 5 2 -6 10 -5 22 3 20 14 161 16 195 3z m-2417 -846 c-5 -36 -14
-69 -20 -75 -7 -7 -8 -4 -5 10 3 11 9 38 12 60 8 49 16 78 20 73 1 -2 -2 -32
-7 -68z m-168 -124 c0 -3 -4 -8 -10 -11 -5 -3 -10 -1 -10 4 0 6 5 11 10 11 6
0 10 -2 10 -4z m30 -53 c0 -8 5 -11 12 -7 6 4 8 3 4 -4 -3 -5 -1 -12 6 -14 7
-3 5 -7 -6 -11 -10 -4 -15 -3 -11 3 3 6 1 10 -4 10 -6 0 -11 7 -11 16 0 8 -4
13 -8 10 -4 -2 -9 4 -9 15 -2 17 1 18 13 9 8 -7 14 -19 14 -27z m1524 -82 c-4
-23 -13 -49 -21 -57 -8 -8 -10 -14 -5 -14 6 0 7 -10 4 -22 -6 -23 -6 -23 -12
2 -4 15 1 42 11 67 10 22 15 44 12 46 -3 3 -2 11 2 17 12 20 16 4 9 -39z m276
-74 c0 -10 7 -20 16 -24 9 -3 14 -13 11 -24 -3 -11 -1 -22 4 -25 13 -7 11 -44
-2 -44 -6 0 -18 -7 -26 -16 -9 -8 -24 -13 -35 -11 -11 3 -16 1 -11 -6 4 -7 0
-8 -11 -4 -14 5 -17 3 -12 -8 3 -8 4 -15 2 -15 -3 0 -12 -3 -21 -7 -15 -5 -16
-3 -6 15 15 27 14 55 -1 46 -8 -5 -9 0 -6 14 4 12 2 20 -3 16 -5 -3 -9 9 -9
26 0 18 4 29 10 25 6 -3 10 0 10 8 0 8 15 22 33 31 17 8 28 16 23 16 -5 0 -3
7 4 15 11 13 15 13 21 3 5 -7 9 -21 9 -31z m-1551 -51 c12 -25 11 -31 -7 -55
-34 -45 -102 -23 -102 33 0 58 83 76 109 22z m1231 -16 c-11 -21 -30 -27 -30
-9 0 5 5 7 10 4 6 -3 10 1 10 9 0 9 5 16 10 16 7 0 7 -6 0 -20z m-17 -37 c-7
-2 -13 -11 -13 -19 0 -8 -5 -14 -11 -14 -5 0 -7 -4 -4 -10 3 -5 2 -10 -4 -10
-5 0 -8 -9 -6 -20 2 -11 -1 -23 -7 -26 -7 -4 -8 -2 -4 4 5 8 -1 12 -16 13 -17
1 -18 3 -5 6 9 2 15 9 12 14 -4 5 -2 9 2 9 5 0 17 14 26 30 10 17 24 30 30 29
9 0 9 -2 0 -6z m151 -47 c-7 -18 -32 -28 -47 -19 -9 5 26 27 50 33 1 0 0 -6
-3 -14z m-57 -32 c-3 -3 -12 -4 -19 -1 -8 3 -5 6 6 6 11 1 17 -2 13 -5z m-167
-24 c38 -38 16 -100 -35 -100 -53 0 -76 74 -33 104 30 21 44 20 68 -4z m107
-2 c-3 -8 -6 -5 -6 6 -1 11 2 17 5 13 3 -3 4 -12 1 -19z m38 4 c-3 -3 -11 0
-18 7 -9 10 -8 11 6 5 10 -3 15 -9 12 -12z m175 -23 c0 -5 -4 -9 -10 -9 -5 0
-10 7 -10 16 0 8 5 12 10 9 6 -3 10 -10 10 -16z m-1410 -19 c0 -5 7 -10 15
-10 8 0 15 -7 15 -16 0 -8 4 -13 9 -9 5 3 12 -4 16 -15 4 -11 11 -18 16 -14 5
3 8 0 7 -8 -2 -7 3 -12 10 -10 8 1 11 -2 7 -8 -3 -5 1 -10 10 -10 9 0 13 -5
10 -10 -4 -6 -20 1 -39 17 -18 15 -32 30 -30 31 4 6 -31 39 -37 36 -4 -2 -14
5 -24 16 -16 18 -16 20 -2 20 10 0 17 -4 17 -10z m1390 -11 c0 -6 -4 -8 -9 -4
-5 3 -12 1 -16 -5 -3 -5 -1 -10 5 -10 6 0 8 -5 4 -11 -4 -8 -9 -7 -14 2 -9 14
10 50 22 43 4 -3 8 -10 8 -15z m-1465 -10 c0 -8 3 -18 6 -24 2 -5 4 -26 4 -45
-1 -19 3 -38 8 -41 5 -3 2 -9 -7 -12 -12 -5 -15 1 -15 26 1 18 -3 51 -9 75 -7
32 -7 42 1 39 7 -2 12 -10 12 -18z m1399 -89 c-20 -28 -41 -50 -47 -50 -8 0
-7 3 1 9 8 4 12 10 11 12 -2 2 8 17 21 32 14 16 26 33 26 38 3 19 4 20 14 14
5 -3 -7 -28 -26 -55z m-1184 -10 c0 -5 -5 -10 -11 -10 -5 0 -7 5 -4 10 3 6 8
10 11 10 2 0 4 -4 4 -10z m750 -26 c-27 -13 -50 -27 -50 -32 0 -14 -35 -21
-51 -11 -10 6 -8 9 9 9 15 0 21 4 16 12 -4 7 -3 8 5 4 6 -4 23 2 37 13 15 12
33 21 40 21 8 0 14 4 14 10 0 5 7 7 15 3 11 -4 0 -13 -35 -29z m-720 11 c10
-12 10 -15 -4 -15 -9 0 -16 7 -16 15 0 8 2 15 4 15 2 0 9 -7 16 -15z m40 -26
c0 -5 5 -7 12 -3 7 4 8 3 4 -5 -6 -9 -11 -9 -22 0 -17 14 -18 19 -4 19 6 0 10
-5 10 -11z m-260 -11 c0 -4 -4 -8 -9 -8 -6 0 -12 4 -15 8 -3 5 1 9 9 9 8 0 15
-4 15 -9z m307 -24 c-9 -9 -28 6 -21 18 4 6 10 6 17 -1 6 -6 8 -13 4 -17z
m227 15 c-3 -5 3 -6 12 -2 14 5 16 3 11 -11 -7 -17 19 -32 64 -39 27 -4 31
-13 8 -14 -22 -2 -52 -34 -41 -43 4 -3 8 -14 10 -25 2 -19 2 -19 -11 -3 -10
13 -16 15 -25 6 -9 -9 -12 -9 -12 1 0 7 -5 9 -12 5 -6 -4 -25 -8 -41 -10 -18
-1 -25 1 -17 6 9 6 6 9 -11 12 -15 2 -25 10 -26 23 l-3 20 10 -20 10 -20 -3
20 c-2 12 -10 19 -21 18 -12 -1 -16 4 -13 17 3 13 0 16 -14 13 -11 -3 -19 0
-19 7 0 8 -9 11 -26 7 -17 -3 -22 -1 -15 6 5 5 22 6 38 2 38 -10 92 -12 86 -2
-2 4 -12 7 -21 7 -14 0 -14 2 2 13 20 15 89 20 80 6z m761 -30 c-4 -12 -10
-17 -14 -11 -4 6 -11 5 -19 -4 -8 -9 -9 -14 -2 -14 6 0 -12 -20 -40 -45 -28
-25 -58 -45 -66 -45 -8 0 -13 -4 -10 -9 6 -10 -24 -25 -32 -16 -3 3 0 5 6 5 7
0 11 6 10 12 -2 7 7 14 20 16 12 2 22 7 22 11 0 4 7 16 16 27 8 10 13 13 9 7
-3 -7 -2 -13 4 -13 6 0 16 10 22 23 17 33 51 67 60 61 5 -3 9 3 9 12 0 10 3
15 6 11 3 -3 3 -15 -1 -28z m-1298 2 c-3 -12 1 -22 9 -25 8 -3 14 -11 14 -17
0 -8 -7 -6 -19 5 -16 15 -19 56 -4 56 3 0 3 -9 0 -19z m811 12 c-10 -2 -18 -9
-18 -15 0 -6 -3 -9 -6 -5 -10 10 6 27 24 26 15 -1 15 -2 0 -6z m-48 -23 c-24
-15 -37 -11 -16 5 11 8 22 12 25 9 3 -3 -1 -9 -9 -14z m-44 -11 c4 -8 -1 -9
-16 -4 -16 5 -20 4 -15 -5 6 -9 3 -9 -14 -1 -11 7 -21 13 -21 14 0 8 61 4 66
-4z m-366 -72 c0 -5 -9 -7 -20 -4 -11 3 -20 1 -20 -5 0 -6 -7 -8 -15 -4 -8 3
-15 2 -15 -2 0 -8 -56 -10 -63 -2 -3 3 7 6 21 7 39 4 61 8 66 14 9 8 46 5 46
-4z m287 -22 c-13 -14 -20 -12 -23 9 -1 9 5 12 17 9 14 -4 15 -8 6 -18z m28
-5 c-3 -5 -12 -10 -18 -10 -7 0 -6 4 3 10 19 12 23 12 15 0z m52 -12 c18 3 24
1 19 -6 -9 -15 -49 -9 -52 7 -1 6 0 8 2 3 3 -5 16 -7 31 -4z m85 -37 c4 -3 -1
-7 -12 -7 -11 0 -20 3 -20 7 0 4 -6 9 -12 12 -7 2 -2 2 12 0 14 -3 28 -8 32
-12z m202 -7 c35 -34 6 -104 -43 -104 -44 0 -71 87 -33 109 25 15 58 13 76 -5z
m-124 -79 c0 -8 -7 -15 -15 -15 -8 0 -15 5 -15 11 0 5 5 7 10 4 6 -3 10 -1 10
4 0 6 2 11 5 11 3 0 5 -7 5 -15z m-507 -18 c26 -7 47 -15 47 -18 0 -4 -21 -2
-47 3 -27 6 -55 11 -64 11 -9 1 -16 7 -16 15 0 8 7 10 16 7 9 -4 37 -12 64
-18z m467 -2 c0 -1 -9 -5 -19 -8 -13 -3 -18 -1 -14 9 4 10 33 10 33 -1z m-64
-10 c-11 -8 -34 -15 -50 -14 -28 1 -26 2 14 13 25 8 47 14 50 14 3 1 -4 -5
-14 -13z m-326 -5 c0 -5 6 -7 13 -5 6 2 44 1 82 -4 l70 -9 -91 1 c-67 1 -91 4
-91 14 0 7 4 13 9 13 4 0 8 -4 8 -10z m233 -17 c-7 -2 -21 -2 -30 0 -10 3 -4
5 12 5 17 0 24 -2 18 -5z"/>
<path d="M3354 4112 c3 -6 -2 -13 -11 -15 -16 -4 -16 -5 -1 -6 21 -1 32 15 17
25 -7 4 -9 3 -5 -4z"/>
<path d="M3260 4086 c0 -2 7 -7 16 -10 8 -3 12 -2 9 4 -6 10 -25 14 -25 6z"/>
<path d="M3098 4013 c7 -3 16 -2 19 1 4 3 -2 6 -13 5 -11 0 -14 -3 -6 -6z"/>
<path d="M3858 4003 c7 -3 16 -2 19 1 4 3 -2 6 -13 5 -11 0 -14 -3 -6 -6z"/>
<path d="M3138 3813 c7 -3 16 -2 19 1 4 3 -2 6 -13 5 -11 0 -14 -3 -6 -6z"/>
<path d="M4190 3790 c0 -5 5 -10 11 -10 5 0 7 5 4 10 -3 6 -8 10 -11 10 -2 0
-4 -4 -4 -10z"/>
<path d="M2667 3703 c-4 -3 -7 -11 -7 -17 0 -6 5 -5 12 2 6 6 9 14 7 17 -3 3
-9 2 -12 -2z"/>
<path d="M4276 3682 c-3 -5 1 -9 9 -9 8 0 12 4 9 9 -3 4 -7 8 -9 8 -2 0 -6 -4
-9 -8z"/>
<path d="M2601 3574 c0 -11 3 -14 6 -6 3 7 2 16 -1 19 -3 4 -6 -2 -5 -13z"/>
<path d="M2805 3500 c-4 -7 -2 -17 4 -23 9 -9 11 -8 6 6 -7 18 10 24 18 7 3
-6 4 -5 3 2 -3 16 -23 21 -31 8z"/>
<path d="M4121 3434 c0 -11 3 -14 6 -6 3 7 2 16 -1 19 -3 4 -6 -2 -5 -13z"/>
<path d="M4144 3419 c-3 -6 -2 -15 3 -20 5 -5 9 -1 9 11 0 23 -2 24 -12 9z"/>
<path d="M4441 3174 c0 -11 3 -14 6 -6 3 7 2 16 -1 19 -3 4 -6 -2 -5 -13z"/>
<path d="M2875 2650 c-3 -5 -1 -10 5 -10 6 0 8 -5 4 -12 -4 -7 -3 -8 5 -4 6 4
9 11 6 16 -3 4 1 11 7 13 8 4 7 6 -4 6 -9 1 -20 -3 -23 -9z"/>
<path d="M2945 2640 c-3 -6 1 -7 9 -4 18 7 21 14 7 14 -6 0 -13 -4 -16 -10z"/>
<path d="M3040 2581 c0 -6 4 -13 10 -16 6 -3 7 1 4 9 -7 18 -14 21 -14 7z"/>
<path d="M3070 2570 c6 -11 13 -20 16 -20 2 0 0 9 -6 20 -6 11 -13 20 -16 20
-2 0 0 -9 6 -20z"/>
<path d="M4184 2542 c3 -6 2 -13 -4 -17 -5 -3 -10 -1 -10 6 0 7 -3 10 -6 6 -3
-3 -1 -13 4 -23 9 -16 10 -16 21 4 8 15 8 23 -1 28 -6 4 -8 3 -4 -4z"/>
<path d="M3210 2476 c4 -4 16 -4 26 2 16 9 14 10 -8 9 -15 -1 -23 -6 -18 -11z"/>
<path d="M4035 2380 c-3 -6 1 -7 9 -4 18 7 21 14 7 14 -6 0 -13 -4 -16 -10z"/>
<path d="M3850 2259 c0 -5 5 -7 10 -4 6 3 10 8 10 11 0 2 -4 4 -10 4 -5 0 -10
-5 -10 -11z"/>
<path d="M3558 2193 c7 -3 16 -2 19 1 4 3 -2 6 -13 5 -11 0 -14 -3 -6 -6z"/>
<path d="M1198 4053 c6 -2 9 -10 6 -15 -4 -7 -2 -8 5 -4 13 9 5 26 -12 25 -9
0 -8 -2 1 -6z"/>
<path d="M2644 3819 c-3 -6 -2 -15 3 -20 5 -5 9 -1 9 11 0 23 -2 24 -12 9z"/>
<path d="M966 3812 c-3 -5 1 -9 9 -9 8 0 12 4 9 9 -3 4 -7 8 -9 8 -2 0 -6 -4
-9 -8z"/>
<path d="M1718 3763 c7 -3 16 -2 19 1 4 3 -2 6 -13 5 -11 0 -14 -3 -6 -6z"/>
<path d="M2300 3741 c0 -6 4 -13 10 -16 6 -3 7 1 4 9 -7 18 -14 21 -14 7z"/>
<path d="M2421 3194 c0 -11 3 -14 6 -6 3 7 2 16 -1 19 -3 4 -6 -2 -5 -13z"/>
<path d="M2621 2487 c-13 -21 -12 -21 5 -5 10 10 16 20 13 22 -3 3 -11 -5 -18
-17z"/>
<path d="M4530 2056 c0 -2 7 -7 16 -10 8 -3 12 -2 9 4 -6 10 -25 14 -25 6z"/>
<path d="M1986 2035 c-107 -38 -186 -157 -186 -280 0 -100 57 -201 145 -255
121 -75 302 -26 367 100 23 42 28 65 28 121 l0 69 -130 0 -130 0 0 -50 0 -50
66 0 66 0 -7 -27 c-17 -74 -118 -107 -189 -64 -70 43 -97 160 -57 247 45 98
147 123 222 53 l32 -30 39 38 c21 20 38 43 38 50 0 17 -77 67 -126 81 -54 16
-130 14 -178 -3z m169 -25 c11 -4 22 -7 25 -6 3 0 19 -9 36 -21 17 -12 34 -20
38 -16 17 17 3 -7 -19 -32 l-24 -29 -23 20 c-13 10 -25 21 -28 24 -21 21 -128
15 -160 -8 -78 -58 -112 -182 -74 -269 10 -24 22 -43 26 -43 5 0 8 -5 8 -11 0
-6 -7 -9 -15 -6 -8 4 -17 2 -20 -3 -3 -4 5 -7 18 -6 24 3 71 -27 61 -37 -3 -3
16 -9 43 -13 66 -11 67 -11 75 1 5 6 8 6 8 -2 0 -8 8 -5 20 7 11 11 27 20 35
20 8 0 15 5 15 10 0 6 6 10 14 8 8 -2 15 2 14 7 0 6 -4 9 -9 8 -4 -2 -6 4 -3
12 4 8 10 12 15 9 17 -10 0 68 -17 81 -9 6 -38 11 -65 9 -37 -2 -47 1 -43 11
8 19 22 21 121 17 l84 -4 -2 -46 c-4 -68 -21 -103 -78 -158 -14 -12 -29 -20
-34 -17 -5 3 -13 0 -17 -7 -15 -24 -150 -31 -177 -9 -12 10 -15 10 -9 1 4 -7
-10 -3 -31 9 -21 12 -42 28 -46 35 -5 8 -14 11 -20 8 -7 -4 -9 -4 -5 0 3 4 -1
16 -10 27 -9 11 -17 23 -17 27 0 4 -3 12 -7 17 -19 32 -34 114 -27 158 9 56
52 143 69 139 8 -2 10 3 6 13 -3 9 -2 13 4 10 5 -3 14 4 20 15 6 11 19 20 30
20 10 0 22 5 25 11 4 5 12 8 18 6 7 -2 17 2 24 9 12 12 88 9 128 -6z"/>
<path d="M4255 2039 c-40 -15 -84 -57 -101 -96 -39 -92 8 -173 132 -228 57
-25 94 -57 94 -80 0 -8 -9 -24 -20 -35 -29 -29 -87 -26 -154 9 -30 17 -57 27
-59 23 -2 -4 -16 -28 -32 -54 l-27 -48 62 -29 c77 -37 142 -46 215 -31 114 24
182 134 139 225 -20 43 -56 71 -150 118 -38 19 -76 42 -82 50 -20 23 1 64 37
72 32 7 106 -9 116 -25 12 -20 25 -9 50 40 l26 51 -48 21 c-54 24 -155 33
-198 17z m127 -24 c21 0 26 -5 25 -20 -2 -16 3 -20 27 -18 28 2 28 2 11 -17
-11 -12 -22 -17 -29 -11 -17 13 -97 30 -90 19 3 -5 0 -9 -7 -7 -25 3 -52 -1
-47 -7 3 -3 -5 -16 -18 -29 -29 -29 -30 -52 -3 -85 11 -14 17 -18 13 -10 -4 8
5 2 19 -13 15 -16 32 -25 39 -21 7 5 8 3 3 -6 -6 -10 -4 -12 8 -7 8 3 21 -1
27 -8 7 -8 15 -14 18 -13 4 0 10 -1 15 -2 4 -1 12 -3 19 -4 7 0 17 -11 24 -23
6 -13 14 -20 18 -16 4 4 4 0 0 -10 -5 -13 -2 -16 12 -10 12 4 15 3 10 -5 -4
-7 -3 -12 2 -12 11 0 8 -68 -3 -95 -10 -23 -55 -70 -55 -58 0 4 -5 1 -10 -7
-5 -8 -17 -16 -27 -16 -10 -1 -41 -5 -68 -8 -40 -5 -64 -1 -112 18 -34 13 -64
22 -67 19 -3 -3 -4 4 -3 15 0 11 5 18 10 15 4 -3 7 3 5 13 -4 24 20 25 54 2
14 -10 33 -18 40 -18 8 0 18 -3 21 -7 11 -11 57 -12 57 -2 0 6 9 7 21 4 15 -5
19 -4 15 4 -4 6 -1 11 7 11 7 0 19 10 25 23 14 25 12 108 -2 100 -5 -3 -6 0
-4 8 3 8 11 13 17 11 7 -1 9 2 6 8 -5 8 -13 6 -24 -4 -21 -19 -38 -21 -22 -3
8 10 7 14 -2 15 -33 3 -112 37 -122 52 -4 6 -12 7 -18 4 -7 -4 -9 -4 -5 0 7 8
-23 45 -33 40 -13 -7 -12 95 1 111 6 7 7 15 3 19 -4 4 1 4 11 0 14 -5 17 -4
12 4 -4 7 -2 12 3 12 6 0 11 7 11 16 0 8 5 12 11 8 6 -3 14 -2 18 3 10 16 64
32 86 25 11 -3 32 -6 47 -7z m58 -18 c0 -8 -7 -14 -15 -14 -16 0 -19 9 -8 20
11 11 23 8 23 -6z"/>
<path d="M4410 1741 c0 -5 5 -13 10 -16 6 -3 10 -2 10 4 0 5 -4 13 -10 16 -5
3 -10 2 -10 -4z"/>
<path d="M640 1755 l0 -285 65 0 65 0 0 115 0 114 93 3 92 3 2 53 c1 34 -2 52
-10 53 -7 0 -49 0 -94 -1 l-83 -1 0 60 0 61 100 0 100 0 0 55 0 55 -165 0
-165 0 0 -285z m298 233 c-3 -22 -8 -23 -89 -26 -96 -3 -102 -7 -115 -91 -5
-32 -2 -43 15 -57 14 -12 17 -20 9 -25 -6 -4 26 -7 72 -6 69 1 85 -2 94 -16
17 -27 -7 -35 -79 -29 -55 4 -65 2 -81 -16 -21 -25 -22 -33 -25 -138 -2 -76
-3 -80 -23 -78 -11 1 -27 3 -33 3 -10 1 -13 57 -13 244 0 134 3 247 7 250 3 4
64 7 135 7 128 0 129 0 126 -22z"/>
<path d="M1040 1755 l0 -285 65 0 65 0 0 285 0 285 -65 0 -65 0 0 -285z m97 8
l-2 -258 -32 -1 -33 -1 0 253 0 253 33 4 c17 2 33 5 34 5 2 1 2 -114 0 -255z"/>
<path d="M1250 1755 l0 -285 66 0 66 0 -4 180 c-2 99 -1 180 2 179 3 0 55 -80
116 -177 l112 -177 66 -3 66 -3 0 286 0 285 -65 0 -65 0 0 -169 c0 -157 6
-198 27 -177 3 3 5 74 4 157 -2 164 1 174 48 158 l26 -9 -6 -98 c-3 -53 -4
-163 -2 -244 2 -82 1 -148 -4 -149 -77 -9 -88 -6 -102 29 -18 45 -48 92 -55
85 -3 -3 -6 1 -6 10 0 9 -5 17 -11 17 -5 0 -8 4 -4 9 3 6 -2 14 -10 19 -9 4
-17 20 -19 35 -1 15 -6 30 -11 35 -4 4 -5 0 -1 -8 5 -8 -3 -2 -15 13 -81 98
-80 97 -98 85 -16 -9 -19 -32 -24 -171 -3 -87 -8 -161 -10 -164 -3 -2 -16 -1
-30 2 -32 9 -33 14 -29 293 l3 213 49 -2 c40 -2 47 -5 39 -16 -11 -13 -10 -14
11 -17 16 -2 29 -27 22 -44 -4 -11 -1 -14 10 -10 10 4 18 -4 27 -28 7 -19 16
-34 21 -34 5 0 22 -26 38 -58 28 -59 38 -73 79 -118 23 -25 43 -31 43 -14 0 6
-8 18 -17 29 -10 10 -65 91 -122 180 l-103 161 -64 0 -64 0 0 -285z"/>
<path d="M2410 1755 l0 -285 160 0 160 0 0 55 0 55 -100 0 -100 0 0 60 0 60
95 0 95 0 0 45 c0 25 1 48 3 53 1 4 -41 9 -93 12 l-95 5 -2 58 -2 57 99 0 100
0 0 55 0 55 -160 0 -160 0 0 -285z m290 230 c0 -25 -1 -25 -91 -25 -53 0 -88
-4 -84 -9 3 -6 0 -13 -7 -18 -17 -11 -17 -115 0 -126 6 -4 12 -15 12 -22 0 -8
7 -15 16 -15 8 0 13 3 11 8 -3 4 26 7 64 7 65 0 69 -1 69 -22 0 -25 -6 -26
-92 -23 -31 1 -48 -3 -48 -10 0 -7 -6 -10 -14 -7 -18 7 -27 -16 -31 -78 -4
-61 11 -85 57 -91 18 -3 38 -7 45 -9 7 -2 14 -1 17 3 3 5 20 6 39 4 24 -3 37
-10 40 -23 3 -10 2 -20 -1 -22 -4 -1 -63 -2 -132 -2 l-125 0 -5 115 c-3 63 -4
177 -2 253 l4 137 129 0 129 0 0 -25z"/>
<path d="M2804 1758 c3 -156 5 -283 5 -284 1 0 28 -2 61 -3 l60 -2 2 181 3
181 115 -180 115 -181 63 0 62 0 0 285 0 285 -60 0 -60 0 -2 -182 -3 -182 -45
72 c-25 40 -76 121 -115 182 l-70 110 -68 0 -68 0 5 -282z m120 241 c-3 -5 -1
-9 4 -9 5 0 14 -10 20 -22 7 -13 20 -34 29 -48 10 -13 12 -21 6 -17 -9 6 -11
3 -7 -7 3 -9 10 -14 14 -11 5 3 11 -4 15 -15 3 -11 11 -20 17 -20 6 0 9 -3 6
-6 -4 -3 2 -14 13 -25 10 -10 19 -25 19 -31 0 -9 -4 -8 -11 2 -9 13 -10 13 -6
0 2 -8 12 -14 22 -12 10 2 14 -1 10 -7 -3 -6 -1 -11 4 -11 6 0 11 -7 11 -15 0
-19 68 -87 81 -80 5 4 14 15 20 27 9 16 8 19 -2 13 -8 -6 -10 -4 -4 6 5 7 10
76 10 154 l2 140 31 3 32 3 0 -255 0 -254 -42 3 c-30 2 -46 9 -53 21 -6 11
-23 38 -39 61 -15 23 -25 47 -21 52 3 6 -2 11 -12 11 -15 0 -16 2 -3 10 13 8
13 10 -1 10 -16 0 -79 88 -79 109 0 7 -5 9 -11 6 -6 -4 -10 -1 -8 6 3 26 -1
39 -12 39 -5 0 -7 -6 -3 -12 4 -7 -3 -3 -15 10 -18 18 -26 20 -42 12 -11 -6
-17 -15 -13 -21 3 -5 1 -15 -5 -22 -5 -7 -7 -18 -3 -24 4 -6 5 -69 2 -139 l-5
-129 -28 0 -28 0 -2 252 c-2 245 -1 252 18 255 32 5 75 -3 69 -13z"/>
<path d="M3380 1755 l0 -286 63 3 62 3 3 283 2 282 -65 0 -65 0 0 -285z m83
254 c9 -9 11 -75 9 -257 -3 -248 -7 -277 -39 -251 -7 6 -16 9 -20 6 -4 -3 -7
108 -5 246 2 242 3 252 22 251 10 0 17 3 14 8 -8 12 5 10 19 -3z"/>
<path d="M3592 1823 c3 -211 4 -219 28 -263 38 -67 94 -94 195 -95 69 0 86 4
125 27 28 16 55 43 70 70 24 42 25 48 25 258 l0 215 -62 3 -63 3 0 -188 c0
-159 -3 -193 -18 -223 -16 -32 -21 -35 -68 -38 -38 -2 -56 2 -75 17 -24 19
-24 21 -27 225 l-3 206 -66 0 -65 0 4 -217z m98 30 c-1 -183 2 -233 13 -233 4
0 5 -4 2 -10 -3 -5 -1 -10 5 -10 6 0 9 -4 6 -9 -3 -5 10 -12 29 -15 20 -4 33
-10 31 -15 -10 -16 96 6 122 26 36 27 39 48 41 251 l1 172 33 0 33 0 -1 -204
c0 -122 -4 -202 -9 -198 -5 3 -6 -2 -3 -12 4 -10 3 -15 -3 -11 -6 3 -10 0 -10
-7 0 -8 -9 -20 -20 -28 -14 -10 -16 -16 -7 -22 8 -5 7 -8 -5 -8 -28 0 -32 -1
-45 -12 -7 -5 -17 -7 -23 -3 -5 3 -10 1 -10 -5 0 -7 -22 -10 -65 -8 -36 2 -65
5 -65 8 0 4 -16 12 -35 19 -19 7 -35 17 -35 22 0 6 -6 7 -12 3 -7 -4 -10 -4
-7 0 4 4 -1 23 -11 43 -14 29 -17 69 -19 229 l-2 194 36 0 35 0 0 -157z"/>
<path d="M4455 1831 c-3 -5 -2 -12 3 -15 5 -3 9 1 9 9 0 17 -3 19 -12 6z"/>
<path d="M2642 1378 c6 -18 28 -21 28 -4 0 9 -7 16 -16 16 -9 0 -14 -5 -12
-12z"/>
<path d="M2954 1365 c-3 -8 -3 -18 0 -24 4 -5 -3 -12 -14 -16 -25 -8 -27 -29
-2 -23 16 4 18 -4 20 -80 1 -47 5 -89 8 -93 7 -12 64 -11 64 1 0 6 -9 10 -20
10 -18 0 -20 7 -20 80 0 74 1 80 21 80 12 0 19 5 16 13 -2 6 -12 11 -21 11
-11 -1 -16 6 -16 27 0 31 -26 41 -36 14z"/>
<path d="M2024 1316 c-51 -36 -31 -81 47 -110 29 -10 49 -24 52 -36 3 -11 1
-18 -3 -15 -5 3 -11 1 -15 -5 -11 -18 -64 -11 -75 10 -12 23 -40 27 -40 6 0
-42 111 -63 143 -28 37 41 14 79 -60 101 -49 14 -58 41 -19 59 21 9 28 7 51
-15 20 -20 28 -24 37 -15 9 9 8 17 -8 32 -27 28 -83 36 -110 16z"/>
<path d="M2250 1323 c-29 -11 -60 -58 -60 -89 0 -44 19 -93 40 -104 76 -41
167 32 146 116 -15 58 -77 96 -126 77z m68 -39 c30 -21 32 -102 3 -128 -44
-40 -109 12 -97 78 12 62 49 82 94 50z"/>
<path d="M2474 1320 c-51 -20 -70 -100 -39 -159 16 -32 33 -41 79 -41 30 0 76
33 76 53 0 14 -26 6 -43 -13 -40 -48 -97 -9 -97 66 0 67 59 99 97 54 21 -24
48 -27 39 -4 -3 9 -6 17 -6 20 0 7 -59 34 -72 33 -7 0 -23 -4 -34 -9z"/>
<path d="M2647 1323 c-4 -3 -7 -51 -7 -105 0 -80 3 -98 15 -98 12 0 15 18 15
105 0 96 -5 117 -23 98z"/>
<path d="M2773 1318 c-56 -27 -67 -129 -20 -176 38 -37 137 -28 137 13 0 19
-14 19 -30 0 -7 -8 -27 -15 -44 -15 -27 0 -35 6 -49 35 l-17 35 68 0 c38 0 71
2 74 6 9 8 -9 75 -24 90 -19 19 -69 25 -95 12z m77 -37 c18 -34 12 -41 -40
-41 -29 0 -50 5 -50 11 0 44 70 67 90 30z"/>
<path d="M3060 1321 c0 -5 16 -52 35 -105 33 -92 34 -99 20 -126 -9 -17 -22
-30 -30 -30 -8 0 -15 -7 -15 -15 0 -8 6 -15 13 -15 27 0 57 33 71 78 8 26 28
83 45 126 17 44 28 83 25 88 -13 21 -29 -3 -55 -78 -15 -43 -29 -72 -32 -64
-2 8 -13 42 -23 75 -18 57 -29 74 -46 75 -5 0 -8 -4 -8 -9z"/>
</g>
</svg>
