<?xml version="1.0" encoding="UTF-8"?>
<!-- Generator: visioncortex VTracer 0.6.4 -->
<svg version="1.1" xmlns="http://www.w3.org/2000/svg" width="539" height="212">
<path d="M0 0 C0 0.66 0 1.32 0 2 C0.58265625 2.11472656 1.1653125 2.22945312 1.765625 2.34765625 C4.16523135 3.04824062 5.72860933 3.98192595 7.75 5.4375 C8.36359375 5.86933594 8.9771875 6.30117188 9.609375 6.74609375 C10.06828125 7.15988281 10.5271875 7.57367188 11 8 C11 8.66 11 9.32 11 10 C11.58523438 10.26167969 12.17046875 10.52335937 12.7734375 10.79296875 C18.21836913 13.74469484 21.95719993 18.21206648 24 24 C24.99 24.33 25.98 24.66 27 25 C28.44921875 27.171875 28.44921875 27.171875 30 30 C30.60457031 30.97453125 31.20914062 31.9490625 31.83203125 32.953125 C45.7713618 56.15784884 49.93617171 83.29404585 44.109375 109.8671875 C41.25747185 121.20377568 36.69225058 132.39338223 30 142 C29.54109375 142.66773438 29.0821875 143.33546875 28.609375 144.0234375 C18.38694535 158.23373805 6.36751721 168.87080611 -9 177 C-9.69609375 177.39960938 -10.3921875 177.79921875 -11.109375 178.2109375 C-24.26256593 185.48593249 -37.72440803 186.83597404 -52.44433594 186.70678711 C-55.36564309 186.68756158 -58.28217166 186.72710119 -61.203125 186.77148438 C-84.37042253 186.87490599 -107.09035308 178.17550884 -124 162 C-127.19795663 157.64270267 -128.73721575 153.69349853 -129.5625 148.375 C-128.59305061 142.55830366 -126.4381162 137.95704819 -121.9375 134.0625 C-116.91169158 130.5337409 -111.98310811 129.96303766 -106 131 C-102.04912124 132.96771276 -98.54983504 135.38930601 -95 138 C-94.01 138.66 -93.02 139.32 -92 140 C-92 140.66 -92 141.32 -92 142 C-91.29875 142.0825 -90.5975 142.165 -89.875 142.25 C-87 143 -87 143 -84.2734375 144.90625 C-72.40922903 152.49481293 -55.43686779 152.777988 -41.98828125 150.08203125 C-30.6542221 147.48691645 -22.0463414 143.35015239 -13 136 C-12.34 136 -11.68 136 -11 136 C-10.731875 135.360625 -10.46375 134.72125 -10.1875 134.0625 C-9 132 -9 132 -6 131 C-4.78130071 128.49552484 -4.78130071 128.49552484 -4 126 C-3.34 126 -2.68 126 -2 126 C-1.57847656 124.90365234 -1.57847656 124.90365234 -1.1484375 123.78515625 C-0.09829322 121.23837779 1.0836444 118.86804509 2.375 116.4375 C7.3262499 106.52056787 9.7367605 97.41432107 9.625 86.3125 C9.61807129 85.18271729 9.61114258 84.05293457 9.60400391 82.88891602 C9.26131754 69.59703969 5.61060062 57.37491077 -3 47 C-3.75410156 46.08605469 -4.50820313 45.17210937 -5.28515625 44.23046875 C-10.32718849 38.4091425 -15.28805569 33.77546868 -22 30 C-23.0828125 29.34257813 -23.0828125 29.34257813 -24.1875 28.671875 C-39.04229429 20.34114577 -56.98586166 18.74151753 -73.25 23.125 C-86.05058246 26.89525559 -97.6450845 33.320833 -105.6875 44.3046875 C-106.120625 44.86414063 -106.55375 45.42359375 -107 46 C-107.66 46 -108.32 46 -109 46 C-109.12834229 46.58700684 -109.25668457 47.17401367 -109.38891602 47.77880859 C-110.5461853 51.98529521 -112.94673164 55.80652354 -115.02929688 59.62890625 C-119.66267249 68.52020899 -120.32101539 77.88503088 -121.0625 87.75 C-121.21783515 89.74496552 -121.37532325 91.7397648 -121.53515625 93.734375 C-121.60831055 94.6524292 -121.68146484 95.5704834 -121.75683594 96.51635742 C-122 99 -122 99 -122.64453125 102.59765625 C-122.76183594 103.39042969 -122.87914062 104.18320313 -123 105 C-121.68732044 106.72943475 -121.68732044 106.72943475 -120 108 C-118.56402402 112.30792793 -117.83175588 116.65344068 -119.90625 120.8203125 C-122.12038837 123.7583038 -123.75899894 124.93633934 -127.3125 125.875 C-128.199375 125.91625 -129.08625 125.9575 -130 126 C-130.3403125 127.2065625 -130.3403125 127.2065625 -130.6875 128.4375 C-136.74156666 144.86996664 -151.14612441 161.24352308 -165.8125 170.625 C-169 172 -169 172 -171.375 171.5625 C-173.49612321 169.52295845 -173.52804724 167.84559754 -174 165 C-173.26394531 164.48050781 -172.52789062 163.96101562 -171.76953125 163.42578125 C-170.79371094 162.72839844 -169.81789062 162.03101563 -168.8125 161.3125 C-167.84957031 160.62800781 -166.88664063 159.94351563 -165.89453125 159.23828125 C-162.99936804 156.99951132 -160.52706007 154.64375552 -158 152 C-157.16339844 151.12601563 -156.32679688 150.25203125 -155.46484375 149.3515625 C-150.91162414 144.43943377 -146.95316644 140.01180311 -144 134 C-143.484375 132.9790625 -142.96875 131.958125 -142.4375 130.90625 C-140.94295172 127.94483025 -139.46586044 124.9756967 -138 122 C-138.66 121.34 -139.32 120.68 -140 120 C-140.72707617 115.22327865 -140.65758774 111.19339997 -138.3125 106.9375 C-135.75494402 104.79468283 -134.22595717 104.51893507 -131 104 C-131.14120714 102.06215735 -131.28812873 100.12473045 -131.4375 98.1875 C-131.51871094 97.10855469 -131.59992188 96.02960938 -131.68359375 94.91796875 C-131.90212461 91.94010095 -131.90212461 91.94010095 -133 89 C-134.39445749 88.80252781 -135.79068152 88.61751413 -137.1875 88.4375 C-138.35345703 88.28087891 -138.35345703 88.28087891 -139.54296875 88.12109375 C-142.19912494 87.99018621 -144.42241629 88.3819293 -147 89 C-147.25394531 90.03898437 -147.50789062 91.07796875 -147.76953125 92.1484375 C-153.12339621 113.91942742 -153.12339621 113.91942742 -158 123 C-156.41579871 122.37720331 -154.83267469 121.75166599 -153.25 121.125 C-151.92742187 120.60292969 -151.92742187 120.60292969 -150.578125 120.0703125 C-148.3259752 119.1353291 -146.16350541 118.12219206 -144 117 C-141.06674982 119.42311971 -140.6208622 121.31702134 -140 125 C-142.58090767 126.31746333 -145.16450458 127.62909617 -147.75 128.9375 C-148.47960937 129.31068359 -149.20921875 129.68386719 -149.9609375 130.06835938 C-150.66992188 130.42607422 -151.37890625 130.78378906 -152.109375 131.15234375 C-152.75874023 131.48226318 -153.40810547 131.81218262 -154.07714844 132.15209961 C-156 133 -156 133 -158.18457031 133.47875977 C-158.78366211 133.65076904 -159.38275391 133.82277832 -160 134 C-160.70710678 135.64991582 -161.36562656 137.3207762 -162 139 C-162.78117188 139.89589844 -163.56234375 140.79179687 -164.3671875 141.71484375 C-167.12208538 144.94087628 -168.71464259 148.42307566 -170.1875 152.375 C-170.44088135 153.03330811 -170.6942627 153.69161621 -170.95532227 154.36987305 C-172.65771329 158.87234437 -174.1634266 163.25941738 -175 168 C-174.67 168.66 -174.34 169.32 -174 170 C-173.36241963 174.55414548 -173.22397294 178.66200286 -176 182.5 C-179.96701115 185.80584262 -181.87702803 186 -187 186 C-188.34882408 185.36525925 -189.6846659 184.70151152 -191 184 C-193.74351187 184.28578249 -196.27124153 184.80001992 -198.92750549 185.52893066 C-201.05590193 186.01270627 -202.97990502 186.16655384 -205.15991211 186.22460938 C-205.97338104 186.24683563 -206.78684998 186.26906189 -207.62496948 186.29196167 C-212.3958653 186.38511471 -217.16580143 186.46197466 -221.9375 186.5 C-222.9364328 186.50811707 -223.9353656 186.51623413 -224.96456909 186.52459717 C-240.7349497 186.58731385 -255.42760005 186.04826664 -269 177 C-271.10421162 176.96066894 -273.21087678 177.01349519 -275.3125 177.125 C-281.00528044 177.22654346 -283.85428294 176.91539945 -288 173 C-289.15638891 170.68722219 -289.19868928 169.19908779 -289.25 166.625 C-289.27578125 165.85414063 -289.3015625 165.08328125 -289.328125 164.2890625 C-289 162 -289 162 -287.45629883 160.30786133 C-284.5454628 155.69493039 -286.47513115 149.5216046 -287.15307617 144.30102539 C-287.43575945 142.07619884 -287.67146292 139.84966523 -287.90429688 137.61914062 C-288.07789002 136.19496356 -288.2542338 134.77111854 -288.43359375 133.34765625 C-288.66647095 131.41418335 -288.66647095 131.41418335 -288.90405273 129.44165039 C-290.35062483 124.89891776 -292.21533951 123.78635687 -296 121 C-296.77734375 118.89453125 -296.77734375 118.89453125 -296.9375 116.8125 C-297.95661273 110.75777142 -301.31769077 106.77592738 -305 102 C-306.20382537 100.39096544 -307.40761885 98.78190532 -308.60913086 97.17114258 C-309.7607335 95.63170054 -310.92118171 94.09888749 -312.08203125 92.56640625 C-316 87.32382892 -316 87.32382892 -316 84 C-313.75177124 82.58444856 -312.33560719 81.99552524 -309.65625 82.03125 C-305.8163283 83.43169203 -304.28759463 86.24637721 -302.1875 89.5625 C-301.78080078 90.17802734 -301.37410156 90.79355469 -300.95507812 91.42773438 C-299.9566127 92.94305249 -298.97646735 94.47041388 -298 96 C-298.04640625 94.70707031 -298.0928125 93.41414063 -298.140625 92.08203125 C-298.39440258 81.86502457 -298.5128909 72.43754192 -294 63 C-293.01 62.505 -293.01 62.505 -292 62 C-289.375 63.4375 -289.375 63.4375 -287 65 C-287.0721875 65.55042969 -287.144375 66.10085937 -287.21875 66.66796875 C-287.96868738 73.38615775 -288.11097521 80.0601459 -288.125 86.8125 C-288.12951172 87.71959717 -288.13402344 88.62669434 -288.13867188 89.5612793 C-288.12849924 94.15464609 -287.9410986 98.4812329 -287 103 C-285.9275 103.226875 -284.855 103.45375 -283.75 103.6875 C-279.46403753 105.18758686 -278.12066459 106.01315058 -276 110 C-275.29621972 115.35878412 -276.09931634 120.7084835 -277 126 C-276.11441406 126.37705078 -276.11441406 126.37705078 -275.2109375 126.76171875 C-272.72349193 128.15486406 -271.41929277 129.60964761 -269.625 131.8125 C-262.16860248 140.54309203 -252.67813962 147.09634688 -241.140625 148.96484375 C-238.09454914 149.01487054 -236.47180444 147.69123461 -234 146 C-228.8889886 145.35098268 -228.8889886 145.35098268 -226 146 C-225.05125 146.845625 -224.1025 147.69125 -223.125 148.5625 C-219.78846123 151.16500024 -219.38330097 151.36748945 -215.4375 151.0625 C-205.65789538 149.47661817 -196.84780247 146.32313079 -188.33984375 141.26953125 C-186.16515903 140.08961049 -184.44312014 139.34372902 -182 139 C-180.1875 140.125 -180.1875 140.125 -179 142 C-179.1015625 144.3984375 -179.1015625 144.3984375 -180 147 C-189.04299499 154.4751202 -202.32857373 159.29971442 -214 160 C-208.09931767 162.62252548 -202.08149603 164.83353577 -196 167 C-196.52268466 169.76276177 -197.10869587 172.3260876 -198 175 C-197.34 175 -196.68 175 -196 175 C-195.773125 174.113125 -195.54625 173.22625 -195.3125 172.3125 C-193.7901675 168.47042274 -192.23277085 166.55614439 -189 164 C-186.1875 163.6875 -186.1875 163.6875 -184 164 C-183.58814453 162.71996094 -183.58814453 162.71996094 -183.16796875 161.4140625 C-181.61345596 156.87010204 -179.7614702 152.46011671 -177.92578125 148.0234375 C-177.00064871 145.00211858 -176.78692852 143.84752568 -178 141 C-178.7734375 139.88625 -178.7734375 139.88625 -179.5625 138.75 C-181.48620301 135.06987251 -181.61053518 132.07573487 -181 128 C-179.75011855 125.12527265 -178.74531416 123.55898562 -176.25 121.6875 C-173.13143415 120.73460488 -170.23765175 120.87547493 -167 121 C-166.731875 120.31035156 -166.46375 119.62070313 -166.1875 118.91015625 C-165.37263267 116.91319519 -164.4935184 114.94161861 -163.5625 112.99609375 C-159.62556736 104.02972966 -158.40080584 95.89937828 -157.875 86.125 C-156.62043396 63.04983697 -151.60969369 43.40821405 -137 25 C-136.19341212 23.78057276 -135.3985962 22.55311909 -134.625 21.3125 C-134.08875 20.549375 -133.5525 19.78625 -133 19 C-132.34 19 -131.68 19 -131 19 C-130.62875 18.071875 -130.62875 18.071875 -130.25 17.125 C-128.79371361 14.64931313 -127.62187494 14.04874998 -125 13 C-125 12.34 -125 11.68 -125 11 C-118.26404037 5.2130931 -110.76106209 0.28933902 -103 -4 C-102.23558594 -4.42925781 -101.47117187 -4.85851563 -100.68359375 -5.30078125 C-69.22152256 -22.04254236 -29.92414415 -17.99403381 0 0 Z M-291 113 C-290.68134222 116.29279709 -289.45484649 117.86535088 -287 120 C-284.96758273 119.36020151 -284.96758273 119.36020151 -283 118 C-282.06419689 115.12060581 -281.62754894 113.74490212 -283 111 C-287.49304582 110.57496554 -287.49304582 110.57496554 -291 113 Z M-173.8125 128.0625 C-175.31589654 130.07818026 -175.31589654 130.07818026 -174.6875 133.1875 C-174.460625 134.115625 -174.23375 135.04375 -174 136 C-172.35 136.33 -170.7 136.66 -169 137 C-167.26352052 135.32511472 -167.26352052 135.32511472 -166 133 C-166.41387499 130.25696427 -166.41387499 130.25696427 -168 128 C-170.50135343 126.70897888 -171.37515079 126.63370909 -173.8125 128.0625 Z M-280 136 C-279.71749338 138.58463502 -279.4243774 141.16731135 -279.125 143.75 C-279.04636719 144.47960937 -278.96773437 145.20921875 -278.88671875 145.9609375 C-278.28662918 151.26922406 -278.28662918 151.26922406 -276 156 C-274.36368108 157.04892238 -272.69514137 158.04906703 -271 159 C-270.56429687 159.53882813 -270.12859375 160.07765625 -269.6796875 160.6328125 C-268.0380134 162.2734629 -268.0380134 162.2734629 -265.50390625 161.92578125 C-264.53324219 161.72339844 -263.56257813 161.52101562 -262.5625 161.3125 C-261.50675781 161.10496094 -260.45101562 160.89742187 -259.36328125 160.68359375 C-257.69845703 160.34521484 -257.69845703 160.34521484 -256 160 C-253.75145867 159.61635058 -251.50149749 159.24090173 -249.25 158.875 C-248.24453125 158.70742187 -247.2390625 158.53984375 -246.203125 158.3671875 C-245.47609375 158.24601562 -244.7490625 158.12484375 -244 158 C-246.87352015 156.0843199 -249.41932553 154.99250949 -252.625 153.75 C-261.89076704 149.9189617 -268.6825064 144.63443055 -275.93359375 137.7578125 C-277.80174338 135.78401969 -277.80174338 135.78401969 -280 136 Z M-244 158 C-243.67 159.98 -243.34 161.96 -243 164 C-252.405 166.97 -252.405 166.97 -262 170 C-258.29239243 172.78070568 -256.13488219 173.7869583 -251.8125 175.0625 C-250.21341797 175.54396484 -250.21341797 175.54396484 -248.58203125 176.03515625 C-246.80892578 176.51275391 -246.80892578 176.51275391 -245 177 C-244.01036255 177.27469116 -244.01036255 177.27469116 -243.00073242 177.55493164 C-236.56008482 179.18714556 -230.30821023 179.33257492 -223.6875 179.3125 C-222.1106543 179.33666992 -222.1106543 179.33666992 -220.50195312 179.36132812 C-212.94766337 179.3659712 -206.2352251 178.14259943 -199 176 C-202.48203069 172.51796931 -207.40315405 171.55654467 -212 170 C-213.08925781 169.62101563 -214.17851562 169.24203125 -215.30078125 168.8515625 C-221.10739167 166.92739782 -226.01369747 165.6994564 -232.12890625 165.96875 C-234.92045122 166.01537288 -236.67758187 165.54827876 -239 164 C-240.3125 160.875 -240.3125 160.875 -241 158 C-241.99 158 -242.98 158 -244 158 Z M-187.8125 171.1875 C-189.23405288 172.99609411 -189.23405288 172.99609411 -189 175.5625 C-188.20869776 178.24375877 -188.20869776 178.24375877 -185.4375 179.3125 C-184.633125 179.539375 -183.82875 179.76625 -183 180 C-180.71226855 178.18887927 -180.04790178 177.39279457 -179.6875 174.4375 C-179.77033253 171.82203581 -179.77033253 171.82203581 -182 170 C-185.80350374 169.63464916 -185.80350374 169.63464916 -187.8125 171.1875 Z " fill="#27A8E0" transform="translate(403,26)"/>
<path d="M0 0 C2.4375 0.6875 2.4375 0.6875 5 2 C6.17787793 4.94469483 6.01742802 6.8914965 5.515625 10.015625 C4.78924573 14.85498426 4.85437885 19.67872399 4.875 24.5625 C4.87113281 25.48224609 4.86726563 26.40199219 4.86328125 27.34960938 C4.86998677 32.01329751 5.0383951 36.41329728 6 41 C7.0725 41.226875 8.145 41.45375 9.25 41.6875 C13.53596247 43.18758686 14.87933541 44.01315058 17 48 C17.70378028 53.35878412 16.90068366 58.7084835 16 64 C16.59039062 64.25136719 17.18078125 64.50273437 17.7890625 64.76171875 C20.27650807 66.15486406 21.58070723 67.60964761 23.375 69.8125 C30.83139752 78.54309203 40.32186038 85.09634688 51.859375 86.96484375 C54.90545086 87.01487054 56.52819556 85.69123461 59 84 C64.1110114 83.35098268 64.1110114 83.35098268 67 84 C67.94875 84.845625 68.8975 85.69125 69.875 86.5625 C73.21153877 89.16500024 73.61669903 89.36748945 77.5625 89.0625 C87.34210462 87.47661817 96.15219753 84.32313079 104.66015625 79.26953125 C106.83484097 78.08961049 108.55687986 77.34372902 111 77 C112.8125 78.125 112.8125 78.125 114 80 C113.8984375 82.3984375 113.8984375 82.3984375 113 85 C103.95700501 92.4751202 90.67142627 97.29971442 79 98 C84.90068233 100.62252548 90.91850397 102.83353577 97 105 C96.47731534 107.76276177 95.89130413 110.3260876 95 113 C95.66 113 96.32 113 97 113 C97.226875 112.113125 97.45375 111.22625 97.6875 110.3125 C99.2098325 106.47042274 100.76722915 104.55614439 104 102 C106.8125 101.6875 106.8125 101.6875 109 102 C109.41185547 100.71996094 109.41185547 100.71996094 109.83203125 99.4140625 C111.38654404 94.87010204 113.2385298 90.46011671 115.07421875 86.0234375 C115.99935129 83.00211858 116.21307148 81.84752568 115 79 C114.484375 78.2575 113.96875 77.515 113.4375 76.75 C111.51379699 73.06987251 111.38946482 70.07573487 112 66 C113.24988145 63.12527265 114.25468584 61.55898562 116.75 59.6875 C119.86856585 58.73460488 122.76234825 58.87547493 126 59 C127.49140021 55.37802806 128.7874262 51.72433382 130 48 C132.375 48.25 132.375 48.25 135 49 C136.3125 51.0625 136.3125 51.0625 137 53 C137.12375 52.21625 137.2475 51.4325 137.375 50.625 C137.86642488 47.77473572 138.41451822 44.95628504 139 42.125 C139.88621147 37.76007784 140.50824374 33.42580637 141 29 C142.98 28.505 142.98 28.505 145 28 C142.81511543 39.61844501 140.29872342 50.36066602 135 61 C136.58420129 60.37720331 138.16732531 59.75166599 139.75 59.125 C140.63171875 58.77695313 141.5134375 58.42890625 142.421875 58.0703125 C144.6740248 57.1353291 146.83649459 56.12219206 149 55 C151.93325018 57.42311971 152.3791378 59.31702134 153 63 C150.41909233 64.31746333 147.83549542 65.62909617 145.25 66.9375 C144.52039063 67.31068359 143.79078125 67.68386719 143.0390625 68.06835938 C142.33007812 68.42607422 141.62109375 68.78378906 140.890625 69.15234375 C140.24125977 69.48226318 139.59189453 69.81218262 138.92285156 70.15209961 C137 71 137 71 134.81542969 71.47875977 C133.91679199 71.73677368 133.91679199 71.73677368 133 72 C132.29289322 73.64991582 131.63437344 75.3207762 131 77 C130.21882812 77.89589844 129.43765625 78.79179687 128.6328125 79.71484375 C125.87791462 82.94087628 124.28535741 86.42307566 122.8125 90.375 C122.55911865 91.03330811 122.3057373 91.69161621 122.04467773 92.36987305 C120.34228671 96.87234437 118.8365734 101.25941738 118 106 C118.33 106.66 118.66 107.32 119 108 C119.63758037 112.55414548 119.77602706 116.66200286 117 120.5 C113.03298885 123.80584262 111.12297197 124 106 124 C104.65117592 123.36525925 103.3153341 122.70151152 102 122 C99.25648813 122.28578249 96.72875847 122.80001992 94.07249451 123.52893066 C91.94409807 124.01270627 90.02009498 124.16655384 87.84008789 124.22460938 C87.02661896 124.24683563 86.21315002 124.26906189 85.37503052 124.29196167 C80.6041347 124.38511471 75.83419857 124.46197466 71.0625 124.5 C70.0635672 124.50811707 69.0646344 124.51623413 68.03543091 124.52459717 C52.2650503 124.58731385 37.57239995 124.04826664 24 115 C21.89578838 114.96066894 19.78912322 115.01349519 17.6875 115.125 C11.99471956 115.22654346 9.14571706 114.91539945 5 111 C3.84361109 108.68722219 3.80131072 107.19908779 3.75 104.625 C3.72421875 103.85414063 3.6984375 103.08328125 3.671875 102.2890625 C4 100 4 100 5.54370117 98.30786133 C8.4545372 93.69493039 6.52486885 87.5216046 5.84692383 82.30102539 C5.56424055 80.07619884 5.32853708 77.84966523 5.09570312 75.61914062 C4.92210998 74.19496356 4.7457662 72.77111854 4.56640625 71.34765625 C4.41115479 70.05867432 4.25590332 68.76969238 4.09594727 67.44165039 C2.64937517 62.89891776 0.78466049 61.78635687 -3 59 C-3.77734375 56.89453125 -3.77734375 56.89453125 -3.9375 54.8125 C-4.95661273 48.75777142 -8.31769077 44.77592738 -12 40 C-13.20382537 38.39096544 -14.40761885 36.78190532 -15.60913086 35.17114258 C-16.7607335 33.63170054 -17.92118171 32.09888749 -19.08203125 30.56640625 C-23 25.32382892 -23 25.32382892 -23 22 C-20.75177124 20.58444856 -19.33560719 19.99552524 -16.65625 20.03125 C-12.8163283 21.43169203 -11.28759463 24.24637721 -9.1875 27.5625 C-8.78080078 28.17802734 -8.37410156 28.79355469 -7.95507812 29.42773438 C-6.9566127 30.94305249 -5.97646735 32.47041388 -5 34 C-5.04640625 32.70707031 -5.0928125 31.41414063 -5.140625 30.08203125 C-5.39815817 19.67348264 -5.2188801 10.70850722 -1 1 C-0.67 0.67 -0.34 0.34 0 0 Z M2 51 C2.31865778 54.29279709 3.54515351 55.86535088 6 58 C8.03241727 57.36020151 8.03241727 57.36020151 10 56 C10.93580311 53.12060581 11.37245106 51.74490212 10 49 C5.50695418 48.57496554 5.50695418 48.57496554 2 51 Z M119.1875 66.0625 C117.68410346 68.07818026 117.68410346 68.07818026 118.3125 71.1875 C118.539375 72.115625 118.76625 73.04375 119 74 C120.65 74.33 122.3 74.66 124 75 C125.73647948 73.32511472 125.73647948 73.32511472 127 71 C126.58612501 68.25696427 126.58612501 68.25696427 125 66 C122.49864657 64.70897888 121.62484921 64.63370909 119.1875 66.0625 Z M13 74 C13.28250662 76.58463502 13.5756226 79.16731135 13.875 81.75 C13.95363281 82.47960937 14.03226563 83.20921875 14.11328125 83.9609375 C14.71337082 89.26922406 14.71337082 89.26922406 17 94 C18.63631892 95.04892238 20.30485863 96.04906703 22 97 C22.43570313 97.53882813 22.87140625 98.07765625 23.3203125 98.6328125 C24.9619866 100.2734629 24.9619866 100.2734629 27.49609375 99.92578125 C28.46675781 99.72339844 29.43742187 99.52101563 30.4375 99.3125 C31.49324219 99.10496094 32.54898438 98.89742187 33.63671875 98.68359375 C35.30154297 98.34521484 35.30154297 98.34521484 37 98 C39.24854133 97.61635058 41.49850251 97.24090173 43.75 96.875 C44.75546875 96.70742187 45.7609375 96.53984375 46.796875 96.3671875 C47.52390625 96.24601562 48.2509375 96.12484375 49 96 C46.12647985 94.0843199 43.58067447 92.99250949 40.375 91.75 C31.10923296 87.9189617 24.3174936 82.63443055 17.06640625 75.7578125 C15.19825662 73.78401969 15.19825662 73.78401969 13 74 Z M49 96 C49.33 97.98 49.66 99.96 50 102 C40.595 104.97 40.595 104.97 31 108 C34.70760757 110.78070568 36.86511781 111.7869583 41.1875 113.0625 C42.78658203 113.54396484 42.78658203 113.54396484 44.41796875 114.03515625 C46.19107422 114.51275391 46.19107422 114.51275391 48 115 C48.98963745 115.27469116 48.98963745 115.27469116 49.99926758 115.55493164 C56.43991518 117.18714556 62.69178977 117.33257492 69.3125 117.3125 C70.8893457 117.33666992 70.8893457 117.33666992 72.49804688 117.36132812 C80.05233663 117.3659712 86.7647749 116.14259943 94 114 C90.51796931 110.51796931 85.59684595 109.55654467 81 108 C79.91074219 107.62101562 78.82148438 107.24203125 77.69921875 106.8515625 C71.89260833 104.92739782 66.98630253 103.6994564 60.87109375 103.96875 C58.07954878 104.01537288 56.32241813 103.54827876 54 102 C52.6875 98.875 52.6875 98.875 52 96 C51.01 96 50.02 96 49 96 Z M105.1875 109.1875 C103.76594712 110.99609411 103.76594712 110.99609411 104 113.5625 C104.79130224 116.24375877 104.79130224 116.24375877 107.5625 117.3125 C108.366875 117.539375 109.17125 117.76625 110 118 C112.28773145 116.18887927 112.95209822 115.39279457 113.3125 112.4375 C113.22966747 109.82203581 113.22966747 109.82203581 111 108 C107.19649626 107.63464916 107.19649626 107.63464916 105.1875 109.1875 Z " fill="#39A7D6" transform="translate(110,88)"/>
<path d="M0 0 C1 1 1 1 1.125 4 C1 7 1 7 0 8 C-2.41439271 8.47146723 -4.82537156 8.9009067 -7.25 9.3125 C-19.837743 11.59404594 -32.11053075 15.07447981 -43 22 C-44.37255115 23.91551913 -44.37255115 23.91551913 -45 26 C-47.62197052 32.79328725 -47.62197052 32.79328725 -50.0859375 34.140625 C-52.41034191 36.39861785 -52.29941339 37.08233666 -52.390625 40.23046875 C-52.36407407 41.88326401 -52.31642461 43.53582663 -52.25 45.1875 C-52.23195312 46.03248047 -52.21390625 46.87746094 -52.1953125 47.74804688 C-52.14820586 49.83251573 -52.07646233 51.91640144 -52 54 C-51.5875 53.50371094 -51.175 53.00742188 -50.75 52.49609375 C-44.64095219 45.30978082 -38.40062467 39.37532535 -30 35 C-34.62 33.68 -39.24 32.36 -44 31 C-43.67 28.69 -43.34 26.38 -43 24 C-40.10070741 23.12794399 -37.94809026 22.96218974 -34.9609375 23.41015625 C-34.21585937 23.51263672 -33.47078125 23.61511719 -32.703125 23.72070312 C-31.14283028 23.94977324 -29.58293402 24.18157304 -28.0234375 24.41601562 C-26.02468718 24.68841476 -24.01180019 24.85213477 -22 25 C-21.34 24.34 -20.68 23.68 -20 23 C-18.01171875 22.6640625 -18.01171875 22.6640625 -15.6875 22.625 C-14.92824219 22.59664062 -14.16898437 22.56828125 -13.38671875 22.5390625 C-11 23 -11 23 -8.82421875 25.01171875 C-4.67735108 27.93115947 -1.06012807 27.40065707 3.875 27.1875 C9.73303593 27.01011486 15.21760571 26.9679923 21 28 C22 31 22 31 20 36 C11.75 36 3.5 36 -5 36 C-5.33 37.65 -5.66 39.3 -6 41 C-8.12203067 43.37924651 -9.72782731 44.79182629 -12.93359375 45.31640625 C-16.27048842 45.41102519 -18.55485554 45.20137488 -21.625 43.8125 C-24.16328353 42.64701676 -24.16328353 42.64701676 -27.1875 44.375 C-28.115625 44.91125 -29.04375 45.4475 -30 46 C-30.66 46 -31.32 46 -32 46 C-32 46.66 -32 47.32 -32 48 C-33.57421875 49.296875 -33.57421875 49.296875 -35.6875 50.75 C-39.56405429 53.61438114 -42.45490934 55.86422768 -45 60 C-45.17164954 62.5621834 -45.06098326 65.02717831 -44.91796875 67.58984375 C-45.04835755 71.42079091 -46.51879001 73.15390619 -49 76 C-51.32595946 77.16297973 -52.78723231 77.16600691 -55.375 77.1875 C-56.53128906 77.20876953 -56.53128906 77.20876953 -57.7109375 77.23046875 C-60.21834888 76.97801607 -61.83261902 76.25193467 -64 75 C-64.99580078 75.70576172 -64.99580078 75.70576172 -66.01171875 76.42578125 C-67.33623047 77.35970703 -67.33623047 77.35970703 -68.6875 78.3125 C-69.55761719 78.92738281 -70.42773438 79.54226562 -71.32421875 80.17578125 C-78.40042827 85 -78.40042827 85 -81 85 C-80.896875 86.051875 -80.79375 87.10375 -80.6875 88.1875 C-81 92 -81 92 -83.4375 94.875 C-84.283125 95.57625 -85.12875 96.2775 -86 97 C-86.495 97.495 -86.495 97.495 -87 98 C-86.91903675 116.54058395 -83.40325442 133.36852668 -73.5859375 149.2734375 C-72.11578434 151.8009422 -71.00629518 154.26008737 -70 157 C-69.34 157 -68.68 157 -68 157 C-65 160.46153846 -65 160.46153846 -65 163 C-64.1028125 163.37125 -64.1028125 163.37125 -63.1875 163.75 C-60.63486469 165.20864875 -59.43267442 166.43626682 -58 169 C-58.27882869 172.06711564 -59.24247137 173.36370706 -61 176 C-65.59430221 174.58636855 -67.90659548 172.32051331 -71.0625 168.75 C-71.89910156 167.81671875 -72.73570313 166.8834375 -73.59765625 165.921875 C-75.95823163 163.0508012 -77.99756738 160.12905796 -80 157 C-80.56460938 156.13761719 -81.12921875 155.27523437 -81.7109375 154.38671875 C-91.3197759 138.8005513 -95.63581412 121.42639123 -96.375 103.25 C-96.54107416 98.1751786 -96.54107416 98.1751786 -99.5625 94.1875 C-100.366875 93.465625 -101.17125 92.74375 -102 92 C-102.93520403 88.15768888 -102.89121139 84.62993414 -100.97265625 81.12109375 C-98.84816717 78.4412671 -97.25999124 77.08666375 -94 76 C-92.86186802 73.62296393 -91.90301081 71.339467 -91 68.875 C-90.50086367 67.55956779 -90.00086645 66.24446192 -89.5 64.9296875 C-89.2529834 64.27613281 -89.0059668 63.62257812 -88.75146484 62.94921875 C-84.22065569 51.19678851 -77.64124954 39.94965742 -68.23046875 31.390625 C-66.63415389 29.89601079 -66.63415389 29.89601079 -67 26.6875 C-67 22.46324357 -66.36980056 20.47570749 -64 17 C-61.375 15.0625 -61.375 15.0625 -58 14 C-56.65931627 14.23172311 -55.32580248 14.50692471 -54 14.8125 C-48.5475394 15.6652975 -45.30894545 13.15673609 -40.7980957 10.33300781 C-35.95006405 7.37200403 -31.07751175 5.34199364 -25.6875 3.5625 C-24.59514038 3.19306274 -24.59514038 3.19306274 -23.48071289 2.81616211 C-15.77914606 0.36173998 -8.05398005 -0.28764214 0 0 Z M-62 36 C-73.18927381 48.78443888 -80.38703819 60.5582702 -85 77 C-81.56068166 75.6926925 -78.38699095 74.18963666 -75.1875 72.375 C-74.39730469 71.92898437 -73.60710937 71.48296875 -72.79296875 71.0234375 C-72.20128906 70.68570313 -71.60960937 70.34796875 -71 70 C-71 69.34 -71 68.68 -71 68 C-70.21625 67.79375 -69.4325 67.5875 -68.625 67.375 C-65.71223141 66.21795889 -65.71223141 66.21795889 -64.875 63.0625 C-64.58625 62.051875 -64.2975 61.04125 -64 60 C-63.49299561 59.54262451 -62.98599121 59.08524902 -62.46362305 58.61401367 C-60.46328777 56.40813935 -60.65357169 55.05355711 -60.70703125 52.11328125 C-60.71669922 51.17548828 -60.72636719 50.23769531 -60.73632812 49.27148438 C-60.76146484 48.29501953 -60.78660156 47.31855469 -60.8125 46.3125 C-60.82603516 45.32443359 -60.83957031 44.33636719 -60.85351562 43.31835938 C-60.88887797 40.87835769 -60.93822967 38.43945281 -61 36 C-61.33 36 -61.66 36 -62 36 Z M-57 61 C-58.70735301 62.03568595 -58.70735301 62.03568595 -60 64 C-59.76522801 67.64541845 -59.76522801 67.64541845 -59 71 C-56.19637237 71.22732116 -54.53813483 71.34081872 -52.125 69.8125 C-50.77477211 67.99267552 -50.77477211 67.99267552 -51 65.4375 C-51.79130224 62.75624123 -51.79130224 62.75624123 -54.5625 61.6875 C-55.366875 61.460625 -56.17125 61.23375 -57 61 Z M-95 83 C-95.33 85.31 -95.66 87.62 -96 90 C-93.23011924 92.31543207 -93.23011924 92.31543207 -90.375 91.6875 C-88.06498035 91.2258486 -88.06498035 91.2258486 -87 90 C-86.83333333 87 -86.83333333 87 -87 84 C-88.18424326 82.58422523 -88.18424326 82.58422523 -91.5625 82.9375 C-93.2640625 82.9684375 -93.2640625 82.9684375 -95 83 Z " fill="#1F1E1F" transform="translate(174,11)"/>
<path d="M0 0 C3.09851777 1.8074687 4.59108071 2.86760812 5.8125 6.25 C5.874375 6.8275 5.93625 7.405 6 8 C7.14855469 8.10957031 8.29710937 8.21914062 9.48046875 8.33203125 C13.99037853 8.90035725 18.05126476 10.14036797 22.3125 11.6875 C23.04654053 11.94934082 23.78058105 12.21118164 24.53686523 12.48095703 C30.69099446 14.74468427 36.39595114 17.58673482 42 21 C42 21.66 42 22.32 42 23 C42.721875 23.268125 43.44375 23.53625 44.1875 23.8125 C47 25 47 25 49.25 26.625 C52.20636912 28.10318456 53.3002702 28.06571237 56.5 27.875 C60.33881539 27.72144738 60.77447076 27.82145602 64 30.375 C66.77904857 34.02250125 67.39319564 36.31059972 67.359375 40.9609375 C66.7567698 44.38006698 64.63213933 45.93189052 62 48 C58.89046621 49.5547669 56.43733239 49.28644437 53 49 C49.6875 47.625 49.6875 47.625 47 45 C46.3087353 42.46255275 45.94243398 40.05678402 45.71484375 37.4375 C44.55260214 33.47444663 41.73820653 31.99984247 38.26831055 30.00390625 C36.32282018 28.95940221 34.35804209 27.97125707 32.375 27 C31.66859375 26.65114746 30.9621875 26.30229492 30.234375 25.94287109 C22.07740484 21.97747128 13.84729153 19.00316035 5 17 C6.4634234 19.23903781 7.93934849 21.46757798 9.4375 23.68359375 C10.56583249 25.35634666 11.66672993 27.04771846 12.75 28.75 C16.79668117 32.79668117 21.2151843 35.81943677 27.10839844 36.10058594 C30.94010707 36.02378837 34.72512985 35.69539352 38.53515625 35.296875 C39.67855469 35.19890625 40.82195312 35.1009375 42 35 C43 36 43 36 43.0625 39.5625 C43.041875 40.696875 43.02125 41.83125 43 43 C38.66266014 44.30120196 34.48291002 45.29517987 30 46 C30.86882812 46.78503906 31.73765625 47.57007813 32.6328125 48.37890625 C46.05856359 60.58784538 46.05856359 60.58784538 51 68 C51.125 70.6875 51.125 70.6875 51 73 C48.1875 73.625 48.1875 73.625 45 74 C42 72 42 72 41 69 C39.37897032 67.28891311 37.70496537 65.62746694 36 64 C34.2958946 62.37163262 32.61974559 60.71230248 31 59 C31 58.34 31 57.68 31 57 C30.401875 56.896875 29.80375 56.79375 29.1875 56.6875 C27 56 27 56 25.5 54.375 C25.005 53.92125 24.51 53.4675 24 53 C22.19130534 53.30420546 22.19130534 53.30420546 20 54 C14.68364115 54.33754659 11.28410018 54.5280825 7 51 C4.28100207 47.50414551 4.64434868 43.23473201 5 39 C5.24878906 38.37351563 5.49757812 37.74703125 5.75390625 37.1015625 C6.15394435 33.68536415 4.17319965 32.00434972 2.125 29.375 C-1.9800995 24.039801 -1.9800995 24.039801 -3 22 C-7.04007821 21.52329461 -8.56387301 21.66543683 -11.8515625 24.1875 C-12.76679688 25.115625 -13.68203125 26.04375 -14.625 27 C-17.4140625 29.8125 -17.4140625 29.8125 -20 32 C-21.32 32 -22.64 32 -24 32 C-24 31.34 -24 30.68 -24 30 C-24.99 30 -25.98 30 -27 30 C-26.72482232 25.32197941 -24.66806114 23.25361247 -21.47265625 20.13671875 C-20 19 -20 19 -18 19 C-16.31777168 16.00244912 -15.66287213 13.45279132 -15.1875 10.0625 C-14.51146206 6.59524479 -13.93164244 4.89642794 -11.9375 1.875 C-7.9026617 -0.7004287 -4.66372475 -0.92091666 0 0 Z M-7 6 C-9.33391203 8.78114056 -9.33391203 8.78114056 -8.625 11.6875 C-8.41875 12.450625 -8.2125 13.21375 -8 14 C-5.64632287 14.6878236 -5.64632287 14.6878236 -3 15 C-2.01 14.34 -1.02 13.68 0 13 C0.41666667 10.5 0.41666667 10.5 0 8 C-1.82915641 5.76154985 -1.82915641 5.76154985 -4.5 5.6875 C-5.325 5.790625 -6.15 5.89375 -7 6 Z M11 41 C10.74969023 43.58380177 10.74969023 43.58380177 11 46 C13.8371515 47.19595537 13.8371515 47.19595537 17 48 C17.99 47.34 18.98 46.68 20 46 C20.41666667 43.5 20.41666667 43.5 20 41 C19.34 40.34 18.68 39.68 18 39 C13.95377498 38.63019987 13.95377498 38.63019987 11 41 Z " fill="#232223" transform="translate(192,4)"/>
<path d="M0 0 C0.33 0 0.66 0 1 0 C0.90912109 0.98552856 0.90912109 0.98552856 0.81640625 1.9909668 C0.36128019 6.95752995 -0.08218438 11.92468077 -0.5 16.89453125 C-0.5825 17.86970703 -0.665 18.84488281 -0.75 19.84960938 C-0.91830306 21.84426364 -1.08493832 23.83905926 -1.25 25.83398438 C-1.58774667 29.79986913 -1.94115428 33.67386707 -2.6484375 37.59375 C-2.76445312 38.3878125 -2.88046875 39.181875 -3 40 C-1.68732044 41.72943475 -1.68732044 41.72943475 0 43 C1.43597598 47.30792793 2.16824412 51.65344068 0.09375 55.8203125 C-2.12038837 58.7583038 -3.75899894 59.93633934 -7.3125 60.875 C-8.199375 60.91625 -9.08625 60.9575 -10 61 C-10.226875 61.804375 -10.45375 62.60875 -10.6875 63.4375 C-16.74156666 79.86996664 -31.14612441 96.24352308 -45.8125 105.625 C-49 107 -49 107 -51.375 106.5625 C-53.49612321 104.52295845 -53.52804724 102.84559754 -54 100 C-53.26394531 99.48050781 -52.52789062 98.96101563 -51.76953125 98.42578125 C-50.79371094 97.72839844 -49.81789062 97.03101563 -48.8125 96.3125 C-47.36810547 95.28576172 -47.36810547 95.28576172 -45.89453125 94.23828125 C-42.99936804 91.99951132 -40.52706007 89.64375552 -38 87 C-37.16339844 86.12601562 -36.32679688 85.25203125 -35.46484375 84.3515625 C-30.91162414 79.43943377 -26.95316644 75.01180311 -24 69 C-23.484375 67.9790625 -22.96875 66.958125 -22.4375 65.90625 C-20.94295172 62.94483025 -19.46586044 59.9756967 -18 57 C-18.66 56.34 -19.32 55.68 -20 55 C-20.72707617 50.22327865 -20.65758774 46.19339997 -18.3125 41.9375 C-15.79204902 39.8257708 -14.24474984 39.27039582 -11 39 C-10.67 36.03 -10.34 33.06 -10 30 C-8.68 30.66 -7.36 31.32 -6 32 C-5.91959473 31.38068604 -5.83918945 30.76137207 -5.75634766 30.12329102 C-5.38338391 27.26913407 -5.00422866 24.41583102 -4.625 21.5625 C-4.49867188 20.58861328 -4.37234375 19.61472656 -4.2421875 18.61132812 C-2.0230152 2.0230152 -2.0230152 2.0230152 0 0 Z " fill="#4DAAD1" transform="translate(283,91)"/>
<path d="M0 0 C0.33 1.65 0.66 3.3 1 5 C1.845625 4.525625 2.69125 4.05125 3.5625 3.5625 C9.53061962 0.96069578 16.57792327 1.03106204 23 1 C23.66 1.33 24.32 1.66 25 2 C25 2.66 25 3.32 25 4 C23.96359375 4.19335938 22.9271875 4.38671875 21.859375 4.5859375 C20.48952391 4.84864867 19.11973548 5.11168671 17.75 5.375 C16.72712891 5.56449219 16.72712891 5.56449219 15.68359375 5.7578125 C10.60170059 6.74295669 10.60170059 6.74295669 6 9 C5.67 9.66 5.34 10.32 5 11 C7.31 11.66 9.62 12.32 12 13 C12 13.66 12 14.32 12 15 C12.66 15 13.32 15 14 15 C14 15.66 14 16.32 14 17 C14.60585937 16.88140625 15.21171875 16.7628125 15.8359375 16.640625 C16.67382812 16.51171875 17.51171875 16.3828125 18.375 16.25 C19.18710938 16.11078125 19.99921875 15.9715625 20.8359375 15.828125 C24.05334578 16.0028978 25.4622023 16.61306926 28.3125 17.96875 C35.50481503 21.03371039 42.96988946 20.43020025 50.625 20.25 C52.12106968 20.22989241 53.61716564 20.21164921 55.11328125 20.1953125 C58.74274238 20.15168115 62.37119819 20.08289303 66 20 C64.80419922 22.46508789 64.80419922 22.46508789 63 25 C60.75439453 25.59936523 60.75439453 25.59936523 58.1328125 25.55859375 C57.17109131 25.55303467 56.20937012 25.54747559 55.21850586 25.54174805 C54.19764893 25.50734619 53.17679199 25.47294434 52.125 25.4375 C51.08158447 25.41792236 50.03816895 25.39834473 48.96313477 25.37817383 C41.50965981 25.18512668 34.30097885 24.5556334 27 23 C25.79730469 22.75894531 24.59460938 22.51789063 23.35546875 22.26953125 C17.50071535 21.06179678 11.71190999 19.76797214 6 18 C6 17.34 6 16.68 6 16 C4.90300781 15.98582031 3.80601562 15.97164062 2.67578125 15.95703125 C1.22131302 15.91011292 -0.23311277 15.86186562 -1.6875 15.8125 C-2.40873047 15.80669922 -3.12996094 15.80089844 -3.87304688 15.79492188 C-7.9753284 15.62633496 -9.63661121 15.28011219 -13 12.6875 C-15.54234116 9.27122906 -15.40795011 7.16109108 -15 3 C-14.01 3 -13.02 3 -12 3 C-11.34 2.01 -10.68 1.02 -10 0 C-6.30581799 -1.231394 -3.7943739 -0.64432764 0 0 Z " fill="#2AA6DE" transform="translate(131,186)"/>
<path d="M0 0 C0.99 0 1.98 0 3 0 C3.02493791 4.94384403 3.04297138 9.88765048 3.05493164 14.83154297 C3.05992396 16.50928384 3.06672015 18.18702045 3.07543945 19.86474609 C3.11988714 28.64447123 3.12835446 37.27524345 2 46 C0.02 46.495 0.02 46.495 -2 47 C-2.33 48.32 -2.66 49.64 -3 51 C-3.07476562 50.32453125 -3.14953125 49.6490625 -3.2265625 48.953125 C-3.97544669 43.01683424 -3.97544669 43.01683424 -7.875 38.75 C-9.421875 37.88375 -9.421875 37.88375 -11 37 C-11.9737698 35.66918128 -12.9406426 34.32809566 -13.7890625 32.9140625 C-16.08866797 29.27920223 -18.79380312 25.91438019 -21.390625 22.48828125 C-23 20 -23 20 -23 17 C-20.75177124 15.58444856 -19.33560719 14.99552524 -16.65625 15.03125 C-12.8163283 16.43169203 -11.28759463 19.24637721 -9.1875 22.5625 C-8.78080078 23.17802734 -8.37410156 23.79355469 -7.95507812 24.42773438 C-6.9566127 25.94305249 -5.97646735 27.47041388 -5 29 C-2.92236421 26.92236421 -3.72348429 22.44926698 -3.625 19.5625 C-3.33121291 12.66566071 -2.58498889 6.47060111 0 0 Z " fill="#2BA7DC" transform="translate(110,93)"/>
<path d="M0 0 C12.55485435 14.42871321 11.92105944 39.20224948 11 57 C9.44049111 76.7417831 1.14803681 94.57802419 -11 110 C-11.33 109.01 -11.66 108.02 -12 107 C-11.34 107 -10.68 107 -10 107 C-10 104.36 -10 101.72 -10 99 C-9.01 99 -8.02 99 -7 99 C-3.03009931 94.58899923 -3.70813626 89.56703067 -4 84 C-3.21625 83.7525 -2.4325 83.505 -1.625 83.25 C1.44505054 81.78807117 1.78592361 81.07639267 3 78 C3.34111094 75.91272891 3.34111094 75.91272891 3.4375 73.75 C3.86276939 69.05657232 5.22767023 65.35697736 7 61 C11.16070674 47.28540152 9.65618393 24.28215131 2.875 11.4375 C2.25625 10.303125 1.6375 9.16875 1 8 C0.42812614 5.30469288 0.19698352 2.75776934 0 0 Z " fill="#53ADD1" transform="translate(438,66)"/>
<path d="M0 0 C0.721875 0.2475 1.44375 0.495 2.1875 0.75 C2.6825 3.72 2.6825 3.72 3.1875 6.75 C-6.43841965 13.93124164 -17.86910799 19.94503687 -30.0625 19.8125 C-31.14015625 19.80347656 -32.2178125 19.79445312 -33.328125 19.78515625 C-34.14796875 19.77355469 -34.9678125 19.76195312 -35.8125 19.75 C-35.8125 20.41 -35.8125 21.07 -35.8125 21.75 C-35.1525 21.75 -34.4925 21.75 -33.8125 21.75 C-33.8125 22.41 -33.8125 23.07 -33.8125 23.75 C-33.11769531 23.88277344 -32.42289063 24.01554687 -31.70703125 24.15234375 C-28.61379014 24.79102916 -25.56209602 25.53856364 -22.5 26.3125 C-21.43136719 26.58191406 -20.36273438 26.85132813 -19.26171875 27.12890625 C-18.45347656 27.33386719 -17.64523438 27.53882813 -16.8125 27.75 C-16.8125 29.4 -16.8125 31.05 -16.8125 32.75 C-18.47916667 32.41666667 -20.14583333 32.08333333 -21.8125 31.75 C-22.555 31.62625 -23.2975 31.5025 -24.0625 31.375 C-26.8125 30.75 -26.8125 30.75 -28.56640625 30.01953125 C-34.43653289 27.64697532 -39.8932935 27.52706088 -46.13989258 27.86108398 C-50.59918742 28.03140238 -53.30665852 27.57985692 -56.8125 24.75 C-57.625 22.0625 -57.625 22.0625 -57.8125 19.75 C-57.1525 19.75 -56.4925 19.75 -55.8125 19.75 C-55.8125 20.41 -55.8125 21.07 -55.8125 21.75 C-55.1525 21.75 -54.4925 21.75 -53.8125 21.75 C-53.4825 22.41 -53.1525 23.07 -52.8125 23.75 C-48.8525 23.75 -44.8925 23.75 -40.8125 23.75 C-40.4825 22.1 -40.1525 20.45 -39.8125 18.75 C-38.96429688 18.65203125 -38.11609375 18.5540625 -37.2421875 18.453125 C-20.45676362 16.82103584 -20.45676362 16.82103584 -6.3125 9.125 C-4.8125 7.75 -4.8125 7.75 -0.8125 7.75 C-0.8125 6.43 -0.8125 5.11 -0.8125 3.75 C-3.1225 3.75 -5.4325 3.75 -7.8125 3.75 C-3.50480769 -0.31153846 -3.50480769 -0.31153846 0 0 Z " fill="#31A4D3" transform="translate(220.8125,165.25)"/>
<path d="M0 0 C1 2 2 4 3 6 C3.99 6.33 4.98 6.66 6 7 C7.60725635 10.21451269 7.05748185 13.43612536 7 17 C6.34 17 5.68 17 5 17 C5 17.99 5 18.98 5 20 C4.34 20 3.68 20 3 20 C3 20.66 3 21.32 3 22 C0.03 22.66 -2.94 23.32 -6 24 C-6 24.66 -6 25.32 -6 26 C-6.66 26 -7.32 26 -8 26 C-9.43358891 20.1116224 -10.59224743 15.00154799 -9 9 C-7.75 7.375 -7.75 7.375 -6 6 C-5.13375 5.13375 -4.2675 4.2675 -3.375 3.375 C-2.25 2.25 -1.125 1.125 0 0 Z " fill="#28A6DF" transform="translate(275,128)"/>
<path d="M0 0 C-16.65968868 10.70785863 -32.8778948 15.04364985 -52.6706543 14.78222656 C-55.56554838 14.74996603 -58.4548796 14.78216281 -61.34960938 14.8203125 C-77.67447887 14.85551858 -91.76304862 11.08429902 -106 3 C-106 2.67 -106 2.34 -106 2 C-98.0652978 0.56518457 -98.0652978 0.56518457 -93.9375 2.25 C-93.298125 2.8275 -92.65875 3.405 -92 4 C-92 4.99 -92 5.98 -92 7 C-91.34515625 7.02578125 -90.6903125 7.0515625 -90.015625 7.078125 C-84.87192954 7.39778969 -80.59020261 8.04064499 -75.8125 10 C-66.12250045 13.56117161 -55.20310382 12.85643376 -45 13 C-45 12.34 -45 11.68 -45 11 C-34.605 10.505 -34.605 10.505 -24 10 C-24 9.34 -24 8.68 -24 8 C-22.35 8 -20.7 8 -19 8 C-19 7.34 -19 6.68 -19 6 C-17.68 6 -16.36 6 -15 6 C-15 5.34 -15 4.68 -15 4 C-12.36 3.01 -9.72 2.02 -7 1 C-7 0.67 -7 0.34 -7 0 C-2.25 -1.125 -2.25 -1.125 0 0 Z " fill="#4BA9D2" transform="translate(403,198)"/>
<path d="M0 0 C2.26957487 0.00846045 4.53658432 -0.02021318 6.8059082 -0.05200195 C17.35212865 -0.10236567 26.12007958 1.53180801 35.60473633 6.44604492 C35.60473633 7.10604492 35.60473633 7.76604492 35.60473633 8.44604492 C36.92473633 8.44604492 38.24473633 8.44604492 39.60473633 8.44604492 C39.60473633 9.10604492 39.60473633 9.76604492 39.60473633 10.44604492 C42.24473633 10.11604492 44.88473633 9.78604492 47.60473633 9.44604492 C47.51192383 10.86916992 47.51192383 10.86916992 47.41723633 12.32104492 C47.47911133 13.35229492 47.54098633 14.38354492 47.60473633 15.44604492 C48.59473633 16.10604492 49.58473633 16.76604492 50.60473633 17.44604492 C50.60473633 18.43604492 50.60473633 19.42604492 50.60473633 20.44604492 C51.59473633 20.44604492 52.58473633 20.44604492 53.60473633 20.44604492 C53.89348633 21.25041992 54.18223633 22.05479492 54.47973633 22.88354492 C55.337362 25.57869172 55.337362 25.57869172 57.60473633 26.44604492 C56.94473633 27.10604492 56.28473633 27.76604492 55.60473633 28.44604492 C54.67854492 27.35936523 54.67854492 27.35936523 53.73364258 26.25073242 C48.53335069 20.31432616 43.53482376 15.3442191 36.60473633 11.44604492 C35.52192383 10.78862305 35.52192383 10.78862305 34.41723633 10.11791992 C19.35165376 1.66897834 1.40640133 0.22383828 -15.02026367 4.82104492 C-19.57348699 6.1475974 -24.02291948 7.59687169 -28.39526367 9.44604492 C-28.39526367 8.45604492 -28.39526367 7.46604492 -28.39526367 6.44604492 C-26.06193034 5.44604492 -23.72859701 4.44604492 -21.39526367 3.44604492 C-20.35337891 2.94041016 -19.31149414 2.43477539 -18.23803711 1.91381836 C-12.4293229 -0.56381376 -6.20407776 -0.03520892 0 0 Z " fill="#58ABCD" transform="translate(344.395263671875,44.553955078125)"/>
<path d="M0 0 C2.4375 0.6875 2.4375 0.6875 5 2 C6.17787793 4.94469483 6.01742802 6.8914965 5.515625 10.015625 C4.78924573 14.85498426 4.85437885 19.67872399 4.875 24.5625 C4.87113281 25.48224609 4.86726563 26.40199219 4.86328125 27.34960938 C4.86998677 32.01329751 5.0383951 36.41329728 6 41 C7.65 41.33 9.3 41.66 11 42 C9.515 42.495 9.515 42.495 8 43 C7.08571661 44.90708843 7.08571661 44.90708843 7 47 C7.66 47.66 8.32 48.32 9 49 C6.69 49.66 4.38 50.32 2 51 C1.97470049 44.77035385 1.95715451 38.54072088 1.94506836 32.31103516 C1.94003128 30.19058741 1.93320141 28.07014315 1.92456055 25.94970703 C1.91246766 22.90656678 1.90676553 19.86347234 1.90234375 16.8203125 C1.89718246 15.86818878 1.89202118 14.91606506 1.88670349 13.93508911 C1.88662796 13.05432709 1.88655243 12.17356506 1.88647461 11.26611328 C1.884254 10.48889923 1.88203339 9.71168518 1.87974548 8.91091919 C2 7 2 7 3 5 C2.01 5 1.02 5 0 5 C-2.2450026 14.27934409 -2.60672763 23.4993676 -3 33 C-3.66 33 -4.32 33 -5 33 C-5.43206693 21.63423943 -5.55533892 11.64741868 -1 1 C-0.67 0.67 -0.34 0.34 0 0 Z " fill="#6BB3CE" transform="translate(110,88)"/>
<path d="M0 0 C1.32 0 2.64 0 4 0 C8.26232866 7.28147812 7.01757086 13.98662947 6 22 C6.639375 22.12375 7.27875 22.2475 7.9375 22.375 C8.618125 22.58125 9.29875 22.7875 10 23 C10.33 23.66 10.66 24.32 11 25 C10.67 25.66 10.34 26.32 10 27 C10.99 27.33 11.98 27.66 13 28 C12.67 28.99 12.34 29.98 12 31 C11.05125 30.484375 10.1025 29.96875 9.125 29.4375 C8.09375 28.963125 7.0625 28.48875 6 28 C3.48916886 29.25541557 3.12874554 30.50063488 2 33 C2 32.01 2 31.02 2 30 C1.34 30 0.68 30 0 30 C-0.99 25.71 -1.98 21.42 -3 17 C-0.69 16.01 1.62 15.02 4 14 C4 11.69 4 9.38 4 7 C2.02 6.34 0.04 5.68 -2 5 C-1.34 3.35 -0.68 1.7 0 0 Z " fill="#29A8E0" transform="translate(118,131)"/>
<path d="M0 0 C1.81992665 2.17870393 3.30854505 4.18770258 4.8125 6.5625 C5.21919922 7.17802734 5.62589844 7.79355469 6.04492188 8.42773438 C7.0433873 9.94305249 8.02353265 11.47041388 9 13 C8.34 13.66 7.68 14.32 7 15 C7 14.34 7 13.68 7 13 C6.01 13 5.02 13 4 13 C4.350625 13.9075 4.70125 14.815 5.0625 15.75 C6.00170571 19.00591313 5.95514676 19.92749994 5 23 C3.04034952 20.39682213 1.08251018 17.79228758 -0.875 15.1875 C-1.43058594 14.44951172 -1.98617187 13.71152344 -2.55859375 12.95117188 C-3.09355469 12.23896484 -3.62851563 11.52675781 -4.1796875 10.79296875 C-4.91807861 9.81106567 -4.91807861 9.81106567 -5.67138672 8.80932617 C-9 4.27636898 -9 4.27636898 -9 1 C-5.6298487 -1.12194711 -3.75573607 -1.36973904 0 0 Z " fill="#54B2D6" transform="translate(96,109)"/>
<path d="M0 0 C2 1.5 2 1.5 3 3 C1.515 5.475 1.515 5.475 0 8 C1.98 8 3.96 8 6 8 C5.34 9.32 4.68 10.64 4 12 C0.04 12 -3.92 12 -8 12 C-8.33 11.01 -8.66 10.02 -9 9 C-9.66 9 -10.32 9 -11 9 C-11 8.34 -11 7.68 -11 7 C-11.66 7 -12.32 7 -13 7 C-12.51963048 2.43648961 -12.51963048 2.43648961 -10.4375 0.6875 C-6.76528025 -0.34825429 -3.82713041 -0.30374051 0 0 Z " fill="#26A7E2" transform="translate(176,178)"/>
<path d="M0 0 C0.99 0.33 1.98 0.66 3 1 C2.67 2.65 2.34 4.3 2 6 C6.34184202 5.81535634 6.34184202 5.81535634 10 4 C11.66617115 3.95936168 13.33388095 3.957279 15 4 C14.34 4.66 13.68 5.32 13 6 C13 6.99 13 7.98 13 9 C12.360625 9.12375 11.72125 9.2475 11.0625 9.375 C10.381875 9.58125 9.70125 9.7875 9 10 C8.67 10.66 8.34 11.32 8 12 C6.68 12 5.36 12 4 12 C3.938125 12.78375 3.87625 13.5675 3.8125 14.375 C3.544375 15.24125 3.27625 16.1075 3 17 C1.35 17.66 -0.3 18.32 -2 19 C-1.67 15.37 -1.34 11.74 -1 8 C-3.31 7.67 -5.62 7.34 -8 7 C-7.67 5.68 -7.34 4.36 -7 3 C-4.69 3 -2.38 3 0 3 C0 2.01 0 1.02 0 0 Z " fill="#2BA7DD" transform="translate(238,146)"/>
<path d="M0 0 C3.14732477 0.62946495 5.92402512 1.81037789 8.8515625 3.1015625 C13.16758924 4.90644641 17.59410742 6.43045056 22 8 C21.47731534 10.76276177 20.89130413 13.3260876 20 16 C20.66 16.33 21.32 16.66 22 17 C21.34 17 20.68 17 20 17 C19.67 17.99 19.34 18.98 19 20 C17.02 19.67 15.04 19.34 13 19 C14.32 18.01 15.64 17.02 17 16 C9.08818498 13.01919594 1.09989305 10.42095373 -7 8 C-7 7.67 -7 7.34 -7 7 C-1.75639842 6.66530203 1.98951366 7.54041266 6.91015625 9.33203125 C9.34508502 10.1102982 11.45894094 10.24590894 14 10 C14.33 10.66 14.66 11.32 15 12 C17.02463255 12.65213292 17.02463255 12.65213292 19 13 C19 11.35 19 9.7 19 8 C17.576875 7.8453125 17.576875 7.8453125 16.125 7.6875 C11.26508446 7.0089081 6.66196126 5.4914524 2 4 C2 3.34 2 2.68 2 2 C1.34 2 0.68 2 0 2 C0 1.34 0 0.68 0 0 Z " fill="#64B2D2" transform="translate(185,185)"/>
<path d="M0 0 C0.495 0.99 0.495 0.99 1 2 C1.66 2.33 2.32 2.66 3 3 C2.01 3.33 1.02 3.66 0 4 C-0.66 3.67 -1.32 3.34 -2 3 C-2 3.66 -2 4.32 -2 5 C-3.32 5 -4.64 5 -6 5 C-6 5.99 -6 6.98 -6 8 C-7.134375 8.309375 -8.26875 8.61875 -9.4375 8.9375 C-12.78775099 9.62924531 -12.78775099 9.62924531 -14 11 C-16.85877909 11.23701239 -19.69883297 11.42219182 -22.5625 11.5625 C-23.36880859 11.60568359 -24.17511719 11.64886719 -25.00585938 11.69335938 C-27.00368805 11.79975262 -29.0018207 11.90040888 -31 12 C-31.33 11.01 -31.66 10.02 -32 9 C-34.61159404 5.15942052 -38.71671156 4.91283196 -43 4 C-43 3.67 -43 3.34 -43 3 C-40.13920931 2.75338011 -37.80793397 2.55933883 -35 3 C-34.05125 3.845625 -33.1025 4.69125 -32.125 5.5625 C-28.78846123 8.16500024 -28.38330097 8.36748945 -24.4375 8.0625 C-15.87944469 6.70305097 -7.66467938 4.01592483 0 0 Z " fill="#35A2D4" transform="translate(212,169)"/>
<path d="M0 0 C0.66 0 1.32 0 2 0 C3.0257259 4.41062136 3.03684712 6.92630576 1 11 C3.52363988 10.37466625 3.52363988 10.37466625 6 9 C6.89386164 6.45224694 6.89386164 6.45224694 7 4 C8.32 4 9.64 4 11 4 C11.33 3.01 11.66 2.02 12 1 C13.98 1 15.96 1 18 1 C15.94448501 3.66007822 14.81492427 4.0454572 11.4375 4.875 C10.303125 5.24625 9.16875 5.6175 8 6 C6.78702351 8.2806707 6.78702351 8.2806707 6 11 C4.44408178 13.10631106 2.72085237 15.02101977 1 17 C0.34 17.99 -0.32 18.98 -1 20 C-1 17.36 -1 14.72 -1 12 C-2.65 12.33 -4.3 12.66 -6 13 C-6.66 15.31 -7.32 17.62 -8 20 C-9 17 -9 17 -9.4375 15 C-9.970624 12.70962954 -9.970624 12.70962954 -12 10 C-10.68 9.67 -9.36 9.34 -8 9 C-8 6.69 -8 4.38 -8 2 C-6 5 -6 5 -6 8 C-4.35 8 -2.7 8 -1 8 C0.87543354 4.13236554 0.87543354 4.13236554 0 0 Z " fill="#62B2D5" transform="translate(235,154)"/>
<path d="M0 0 C4.75976335 -0.36613564 8.24455107 0.64188098 12.6484375 2.203125 C24.08921464 6.08006609 35.98033663 6.16384298 47.9375 6.125 C49.15501953 6.12886719 50.37253906 6.13273438 51.62695312 6.13671875 C52.79033203 6.13542969 53.95371094 6.13414062 55.15234375 6.1328125 C56.7300354 6.13112061 56.7300354 6.13112061 58.33959961 6.12939453 C61.10528052 6.11477735 61.10528052 6.11477735 64 5 C66.33299825 4.96045766 68.66708189 4.95598268 71 5 C67.98698955 8.01301045 64.97271392 8.11455385 60.84008789 8.22460938 C60.02663406 8.2468457 59.21318024 8.26908203 58.37507629 8.29199219 C53.60417595 8.38508882 48.83419012 8.46109774 44.0625 8.5 C43.06456421 8.50878174 42.06662842 8.51756348 41.03845215 8.52661133 C26.21201125 8.59733044 13.47235237 7.77072068 0 1 C0 0.67 0 0.34 0 0 Z " fill="#48A6CF" transform="translate(137,204)"/>
<path d="M0 0 C1.875 0.625 1.875 0.625 4 2 C5.25 5.125 5.25 5.125 6 8 C7.32 7.67 8.64 7.34 10 7 C10.66 8.98 11.32 10.96 12 13 C13.65 12.67 15.3 12.34 17 12 C17.12375 11.195625 17.2475 10.39125 17.375 9.5625 C17.684375 8.2940625 17.684375 8.2940625 18 7 C18.66 6.67 19.32 6.34 20 6 C20.33 8.64 20.66 11.28 21 14 C18.09399739 15.25664978 16.20395416 16 13 16 C12.67 17.32 12.34 18.64 12 20 C8.47988464 18.09723494 5.96398992 16.53518186 4 13 C3.65458149 10.66842508 3.32205743 8.33491639 3 6 C1.54276115 2.66556056 1.54276115 2.66556056 0 0 Z " fill="#5BB2D6" transform="translate(102,132)"/>
<path d="M0 0 C3 1 3 1 5 4 C5.99 4 6.98 4 8 4 C8.33 4.66 8.66 5.32 9 6 C9.99 6.33 10.98 6.66 12 7 C12 9.64 12 12.28 12 15 C11.01 15.33 10.02 15.66 9 16 C9 16.66 9 17.32 9 18 C4.05 18.495 4.05 18.495 -1 19 C-1.33 18.01 -1.66 17.02 -2 16 C-0.865625 15.690625 0.26875 15.38125 1.4375 15.0625 C4.78775099 14.37075469 4.78775099 14.37075469 6 13 C6.04063832 11.33382885 6.042721 9.66611905 6 8 C5.030625 7.5875 4.06125 7.175 3.0625 6.75 C0 5 0 5 -0.9375 2.875 C-0.958125 2.25625 -0.97875 1.6375 -1 1 C-0.67 0.67 -0.34 0.34 0 0 Z " fill="#38A2CD" transform="translate(216,190)"/>
<path d="M0 0 C0.66 0 1.32 0 2 0 C1.7834375 0.7425 1.7834375 0.7425 1.5625 1.5 C0.51985259 6.13398849 0 10.69898938 0 15.4375 C0 16.283125 0 17.12875 0 18 C-0.33 18.33 -0.66 18.66 -1 19 C-1.20240885 20.42635863 -1.34683026 21.86106823 -1.46484375 23.296875 C-1.54283203 24.1734375 -1.62082031 25.05 -1.70117188 25.953125 C-1.85738551 27.80186816 -2.01107602 29.65082643 -2.16210938 31.5 C-2.5660389 35.99248448 -2.94319879 39.90360931 -5 44 C-5.33 44 -5.66 44 -6 44 C-5.91790651 39.74928055 -5.80518191 35.49987129 -5.6875 31.25 C-5.66494141 30.06277344 -5.64238281 28.87554687 -5.61914062 27.65234375 C-5.32540126 17.87883389 -3.77130717 9.04459797 0 0 Z " fill="#60B2D4" transform="translate(251,81)"/>
<path d="M0 0 C1.0828125 0.37125 1.0828125 0.37125 2.1875 0.75 C2.5175 2.73 2.8475 4.71 3.1875 6.75 C-5.70682906 13.38545184 -15.68620525 18.54677474 -26.8125 19.75 C-26.3175 18.265 -26.3175 18.265 -25.8125 16.75 C-22.79296875 15.65234375 -22.79296875 15.65234375 -19 14.6875 C-12.0060105 13.12954521 -12.0060105 13.12954521 -6.3125 9.125 C-4.8125 7.75 -4.8125 7.75 -0.8125 7.75 C-0.8125 6.43 -0.8125 5.11 -0.8125 3.75 C-3.1225 3.75 -5.4325 3.75 -7.8125 3.75 C-3.50480769 -0.31153846 -3.50480769 -0.31153846 0 0 Z " fill="#5CACC9" transform="translate(220.8125,165.25)"/>
<path d="M0 0 C-7.65992907 4.92334756 -15.23453981 8.74382173 -23.9375 11.5 C-25.12533081 11.88212646 -25.12533081 11.88212646 -26.3371582 12.27197266 C-32.73351188 14.19701678 -38.43959193 14.59040196 -45 13 C-45 12.34 -45 11.68 -45 11 C-34.605 10.505 -34.605 10.505 -24 10 C-24 9.34 -24 8.68 -24 8 C-22.35 8 -20.7 8 -19 8 C-19 7.34 -19 6.68 -19 6 C-17.68 6 -16.36 6 -15 6 C-15 5.34 -15 4.68 -15 4 C-12.36 3.01 -9.72 2.02 -7 1 C-7 0.67 -7 0.34 -7 0 C-2.25 -1.125 -2.25 -1.125 0 0 Z " fill="#6FB8D0" transform="translate(403,198)"/>
<path d="M0 0 C21.0339373 -0.30617085 37.55047253 0.83600081 57 9 C56.01 9.66 55.02 10.32 54 11 C54 10.34 54 9.68 54 9 C52.88625 8.87625 51.7725 8.7525 50.625 8.625 C47.27167294 8.19984603 43.94915548 7.67611591 40.625 7.0625 C39.79226563 6.90910156 38.95953125 6.75570313 38.1015625 6.59765625 C36 6 36 6 34 4 C32.06008596 3.57862715 32.06008596 3.57862715 29.9375 3.4375 C26 3 26 3 25 2 C23.14825294 1.84213692 21.2909089 1.74892644 19.43359375 1.68359375 C17.7465332 1.62075195 17.7465332 1.62075195 16.02539062 1.55664062 C14.84138672 1.51732422 13.65738281 1.47800781 12.4375 1.4375 C11.24962891 1.39431641 10.06175781 1.35113281 8.83789062 1.30664062 C5.89205216 1.20016454 2.9461257 1.09815159 0 1 C0 0.67 0 0.34 0 0 Z " fill="#75BAD2" transform="translate(335,11)"/>
<path d="M0 0 C0.99 0.33 1.98 0.66 3 1 C2.360625 1.185625 1.72125 1.37125 1.0625 1.5625 C-1.42126213 2.94246056 -1.42126213 2.94246056 -1.75 6.625 C-1.8325 7.73875 -1.915 8.8525 -2 10 C-3.65 10.33 -5.3 10.66 -7 11 C-7 11.66 -7 12.32 -7 13 C-8.98 13.66 -10.96 14.32 -13 15 C-13.66 14.34 -14.32 13.68 -15 13 C-15.99 12.67 -16.98 12.34 -18 12 C-17.0925 11.4225 -16.185 10.845 -15.25 10.25 C-12.47977054 8.33214884 -10.28054501 6.45597155 -8 4 C-7.34 4.33 -6.68 4.66 -6 5 C-5.071875 4.154375 -4.14375 3.30875 -3.1875 2.4375 C-1.60546875 0.99609375 -1.60546875 0.99609375 0 0 Z " fill="#42A9D4" transform="translate(252,175)"/>
<path d="M0 0 C0.61875 0.495 1.2375 0.99 1.875 1.5 C1.545 2.16 1.215 2.82 0.875 3.5 C0.36453125 3.17257813 -0.1459375 2.84515625 -0.671875 2.5078125 C-3.99272037 1.14351616 -6.79872568 1.3087727 -10.375 1.375 C-11.63828125 1.39304688 -12.9015625 1.41109375 -14.203125 1.4296875 C-15.16734375 1.45289063 -16.1315625 1.47609375 -17.125 1.5 C-16.795 2.49 -16.465 3.48 -16.125 4.5 C-17.053125 5.3353125 -17.053125 5.3353125 -18 6.1875 C-20.18606379 8.56645178 -21.11285699 10.46357096 -22.125 13.5 C-23.115 13.5 -24.105 13.5 -25.125 13.5 C-25.125 15.48 -25.125 17.46 -25.125 19.5 C-25.455 19.5 -25.785 19.5 -26.125 19.5 C-26.62099915 13.54801026 -25.52236621 9.45579107 -22.125 4.5 C-16.19429741 -1.77136958 -7.92783389 -3.80536027 0 0 Z " fill="#56ACCE" transform="translate(300.125,158.5)"/>
<path d="M0 0 C1.32 0 2.64 0 4 0 C8.26232866 7.28147812 7.01757086 13.98662947 6 22 C6.639375 22.12375 7.27875 22.2475 7.9375 22.375 C8.618125 22.58125 9.29875 22.7875 10 23 C10.33 23.66 10.66 24.32 11 25 C8.03 24.67 5.06 24.34 2 24 C1.67 23.01 1.34 22.02 1 21 C1.99 20.67 2.98 20.34 4 20 C4 18.68 4 17.36 4 16 C3.34 15.67 2.68 15.34 2 15 C2.66 14.67 3.32 14.34 4 14 C4 11.69 4 9.38 4 7 C2.02 6.34 0.04 5.68 -2 5 C-1.34 3.35 -0.68 1.7 0 0 Z " fill="#2BA5D5" transform="translate(118,131)"/>
<path d="M0 0 C2.50304378 3.75456567 2.45280074 5.54745934 2 10 C-1.07692308 15.53846154 -1.07692308 15.53846154 -4 17 C-5.54023996 17.06950541 -7.08334988 17.08452357 -8.625 17.0625 C-9.85089844 17.04896484 -9.85089844 17.04896484 -11.1015625 17.03515625 C-11.72804688 17.02355469 -12.35453125 17.01195313 -13 17 C-12.34 16.34 -11.68 15.68 -11 15 C-11.33 14.01 -11.66 13.02 -12 12 C-12.66 11.67 -13.32 11.34 -14 11 C-13.34 10.34 -12.68 9.68 -12 9 C-12 9.66 -12 10.32 -12 11 C-7.92035719 9.69844994 -7.92035719 9.69844994 -4 8 C-4 8.66 -4 9.32 -4 10 C-2.68 10.33 -1.36 10.66 0 11 C0 7.37 0 3.74 0 0 Z " fill="#2D2C30" transform="translate(127,71)"/>
<path d="M0 0 C0.33 0.66 0.66 1.32 1 2 C1.66 2 2.32 2 3 2 C2.125 6.75 2.125 6.75 1 9 C0.34 9 -0.32 9 -1 9 C-1.33 10.65 -1.66 12.3 -2 14 C-2.61875 14.04125 -3.2375 14.0825 -3.875 14.125 C-4.57625 14.41375 -5.2775 14.7025 -6 15 C-6.309375 15.969375 -6.61875 16.93875 -6.9375 17.9375 C-8 21 -8 21 -10.4375 22.375 C-13 23 -13 23 -16 23 C-14.625 21.5 -14.625 21.5 -13 20 C-12.34 20 -11.68 20 -11 20 C-10.34 18.35 -9.68 16.7 -9 15 C-8.34 15 -7.68 15 -7 15 C-6.72414063 14.28457031 -6.44828125 13.56914062 -6.1640625 12.83203125 C-5.01751478 10.04261145 -3.73772885 7.37709642 -2.375 4.6875 C-1.92898438 3.80449219 -1.48296875 2.92148438 -1.0234375 2.01171875 C-0.68570312 1.34785156 -0.34796875 0.68398437 0 0 Z " fill="#4BA8D1" transform="translate(408,137)"/>
<path d="M0 0 C1.67542976 0.28604898 3.34385343 0.61781233 5 1 C4.67 3.97 4.34 6.94 4 10 C3.67 10 3.34 10 3 10 C3.33 7.69 3.66 5.38 4 3 C3.01 3 2.02 3 1 3 C-1.2450026 12.27934409 -1.60672763 21.4993676 -2 31 C-2.66 31 -3.32 31 -4 31 C-4.59446553 9.75336165 -4.59446553 9.75336165 -1 1 C-0.67 0.67 -0.34 0.34 0 0 Z " fill="#55AACE" transform="translate(109,90)"/>
<path d="M0 0 C-2 2 -2 2 -4.3046875 3.34765625 C-7.21864719 5.13404023 -9.59448493 7.14301157 -12.125 9.4375 C-12.97320312 10.19933594 -13.82140625 10.96117188 -14.6953125 11.74609375 C-17.01973402 13.89758716 -17.01973402 13.89758716 -18.6796875 16.28515625 C-19.33324219 17.13400391 -19.33324219 17.13400391 -20 18 C-20.66 18 -21.32 18 -22 18 C-22.33 19.32 -22.66 20.64 -23 22 C-23.33 22 -23.66 22 -24 22 C-24 20.02 -24 18.04 -24 16 C-23.01 16 -22.02 16 -21 16 C-20.938125 15.236875 -20.87625 14.47375 -20.8125 13.6875 C-19.7452344 10.15731377 -18.1524958 9.69749774 -15 8 C-15 7.34 -15 6.68 -15 6 C-14.01 5.67 -13.02 5.34 -12 5 C-11.67 4.01 -11.34 3.02 -11 2 C-9.68 2 -8.36 2 -7 2 C-7 1.34 -7 0.68 -7 0 C-4.3333581 -1.33332095 -2.83319697 -0.67102033 0 0 Z " fill="#5AB0D1" transform="translate(316,54)"/>
<path d="M0 0 C0.99 0.33 1.98 0.66 3 1 C2.67 2.32 2.34 3.64 2 5 C1.34 5 0.68 5 0 5 C-0.12375 5.78375 -0.2475 6.5675 -0.375 7.375 C-1 10 -1 10 -3 12 C-3.99 12 -4.98 12 -6 12 C-6.33 14.64 -6.66 17.28 -7 20 C-8.65 20 -10.3 20 -12 20 C-12 19.34 -12 18.68 -12 18 C-11.34 18 -10.68 18 -10 18 C-9.80664062 17.14728516 -9.80664062 17.14728516 -9.609375 16.27734375 C-7.84316315 9.67669304 -5.18646635 4.4661238 0 0 Z " fill="#37A0CD" transform="translate(265,154)"/>
<path d="M0 0 C0.66 0.33 1.32 0.66 2 1 C0.625 3.5 0.625 3.5 -1 6 C-1.66 6 -2.32 6 -3 6 C-3.1546875 7.175625 -3.1546875 7.175625 -3.3125 8.375 C-4 11 -4 11 -7 13 C-7.33 13.99 -7.66 14.98 -8 16 C-9.32 16.33 -10.64 16.66 -12 17 C-12.66 19.64 -13.32 22.28 -14 25 C-14.33 24.34 -14.66 23.68 -15 23 C-15.66 23 -16.32 23 -17 23 C-16.38644969 19.0355211 -14.40143734 16.4475346 -12.0625 13.25 C-10.99708984 11.77273437 -10.99708984 11.77273437 -9.91015625 10.265625 C-9.27980469 9.51796875 -8.64945312 8.7703125 -8 8 C-7.34 8 -6.68 8 -6 8 C-5.62875 7.071875 -5.62875 7.071875 -5.25 6.125 C-3.79371361 3.64931313 -2.62187494 3.04874998 0 2 C0 1.34 0 0.68 0 0 Z " fill="#4BA6CD" transform="translate(278,37)"/>
<path d="M0 0 C0.33 1.98 0.66 3.96 1 6 C0.01 5.67 -0.98 5.34 -2 5 C-2.46131351 9.90066261 -2.46131351 9.90066261 -0.4296875 14.19140625 C2.81418795 16.60605952 5.11580549 16.56613607 9.125 16.6875 C15.86547085 16.93273543 15.86547085 16.93273543 18 18 C18 18.66 18 19.32 18 20 C16.845 19.835 15.69 19.67 14.5 19.5 C11.55689404 19.11001246 8.83529115 19.02176941 5.875 19.1875 C1.35760739 18.96891649 -0.55805779 17.85429354 -4 15 C-5.7183093 11.5633814 -5.38792805 7.7655775 -5 4 C-2.85365854 0 -2.85365854 0 0 0 Z " fill="#6BB3CD" transform="translate(119,184)"/>
<path d="M0 0 C-0.99 0.495 -0.99 0.495 -2 1 C-1.34 1.66 -0.68 2.32 0 3 C-1.89492006 3.33848652 -3.79098466 3.67056911 -5.6875 4 C-6.74324219 4.185625 -7.79898437 4.37125 -8.88671875 4.5625 C-11.64904062 4.95068074 -14.21742043 5.08259976 -17 5 C-17 5.99 -17 6.98 -17 8 C-21.65798604 9.20465156 -26.23649415 10.28547412 -31 11 C-25.18527074 6.15439229 -18.31519805 3.63023201 -11.25 1.1875 C-10.59990967 0.95627441 -9.94981934 0.72504883 -9.2800293 0.48681641 C-5.86341846 -0.65484991 -3.41560335 -1.40591754 0 0 Z " fill="#57AED1" transform="translate(329,13)"/>
<path d="M0 0 C0.33 0 0.66 0 1 0 C0.93941406 0.65629395 0.87882812 1.31258789 0.81640625 1.98876953 C0.35986613 6.9676907 -0.08383089 11.94721849 -0.5 16.9296875 C-0.5825 17.909375 -0.665 18.8890625 -0.75 19.8984375 C-0.91862146 21.90608678 -1.08524348 23.91390486 -1.25 25.921875 C-1.3325 26.89382812 -1.415 27.86578125 -1.5 28.8671875 C-1.5721875 29.73456543 -1.644375 30.60194336 -1.71875 31.49560547 C-2.00434121 34.03865637 -2.46207907 36.499228 -3 39 C-3.66 39 -4.32 39 -5 39 C-4.85891477 35.85393539 -4.71123864 32.70821132 -4.5625 29.5625 C-4.52318359 28.68400391 -4.48386719 27.80550781 -4.44335938 26.90039062 C-4.09060564 19.54683195 -3.64468612 12.19550177 -2 5 C-1.835 4.2575 -1.67 3.515 -1.5 2.75 C-1 1 -1 1 0 0 Z " fill="#5CACC9" transform="translate(283,91)"/>
<path d="M0 0 C0.5534764 2.07553648 1 3.84365964 1 6 C1.66 5.34 2.32 4.68 3 4 C4.6112798 9.71271928 3.08989546 13.68670645 1 19 C-1.52845528 17.73577236 -1.76422764 16.47154472 -3 14 C-3.66 14 -4.32 14 -5 14 C-4.54636829 12.41531323 -4.08688548 10.83230076 -3.625 9.25 C-3.36976563 8.36828125 -3.11453125 7.4865625 -2.8515625 6.578125 C-2.0790066 4.23919428 -1.16374324 2.16557438 0 0 Z " fill="#35A5D6" transform="translate(246,122)"/>
<path d="M0 0 C0.99 0 1.98 0 3 0 C0.80312583 11.68220145 -1.51592929 23.33954571 -7 34 C-7.99 34.495 -7.99 34.495 -9 35 C-8.33221643 30.96328582 -7.05603352 27.42752748 -5.5625 23.625 C-3.14306438 17.03604708 -2.07521375 10.85182976 -1.359375 3.88671875 C-1 1 -1 1 0 0 Z " fill="#57A7CB" transform="translate(252,116)"/>
<path d="M0 0 C0.875 2.125 0.875 2.125 1 4 C3.31 4.33 5.62 4.66 8 5 C8.33 5.99 8.66 6.98 9 8 C9.66 8.33 10.32 8.66 11 9 C6.66194736 8.41901081 3.01724577 7.35116029 -1 5.625 C-2.03640625 5.18027344 -3.0728125 4.73554688 -4.140625 4.27734375 C-7.14678637 2.9344274 -10.08881991 1.53645616 -13 0 C-13 -0.33 -13 -0.66 -13 -1 C-8.05316434 -1.98936713 -4.58916476 -2.29458238 0 0 Z " fill="#4FABD5" transform="translate(310,201)"/>
<path d="M0 0 C3.80718548 0.72753266 7.55485569 1.61276572 11.3125 2.5625 C12.38113281 2.83191406 13.44976562 3.10132813 14.55078125 3.37890625 C15.76314453 3.68634766 15.76314453 3.68634766 17 4 C17 5.65 17 7.3 17 9 C15.33333333 8.66666667 13.66666667 8.33333333 12 8 C11.195625 7.855625 10.39125 7.71125 9.5625 7.5625 C6.62348672 6.91735074 3.83926082 5.99043982 1 5 C0.67 3.35 0.34 1.7 0 0 Z " fill="#2EA5D9" transform="translate(187,189)"/>
<path d="M0 0 C0.66 0.99 1.32 1.98 2 3 C-12.79023188 21.07134134 -12.79023188 21.07134134 -20 22 C-20.33 21.34 -20.66 20.68 -21 20 C-20.360625 19.896875 -19.72125 19.79375 -19.0625 19.6875 C-18.0415625 19.3471875 -18.0415625 19.3471875 -17 19 C-16.67 18.01 -16.34 17.02 -16 16 C-15.01 16 -14.02 16 -13 16 C-12.855625 15.38125 -12.71125 14.7625 -12.5625 14.125 C-12 12 -12 12 -11 10 C-10.4225 9.896875 -9.845 9.79375 -9.25 9.6875 C-5.98941532 8.69121024 -4.34379003 6.40546871 -2 4 C-1.34 4 -0.68 4 0 4 C0 2.68 0 1.36 0 0 Z " fill="#62B1D3" transform="translate(424,174)"/>
<path d="M0 0 C-0.598125 0.28875 -1.19625 0.5775 -1.8125 0.875 C-4.19327792 2.04742026 -4.19327792 2.04742026 -7 4 C-2.9811485 5.81242323 0.61110675 7.33501617 5 8 C4.67 8.66 4.34 9.32 4 10 C1.03 10 -1.94 10 -5 10 C-5 9.34 -5 8.68 -5 8 C-5.66 8 -6.32 8 -7 8 C-7 7.34 -7 6.68 -7 6 C-8.175625 5.7834375 -8.175625 5.7834375 -9.375 5.5625 C-12 5 -12 5 -14 4 C-13.67 3.01 -13.34 2.02 -13 1 C-8.59085217 -0.10228696 -4.51617599 -0.07654536 0 0 Z " fill="#5CB1D4" transform="translate(150,193)"/>
<path d="M0 0 C4.77117819 3.6976631 4.77117819 3.6976631 5.3671875 7.08984375 C5.38322332 11.78032047 4.78591185 16.38276789 4 21 C4.598125 21.226875 5.19625 21.45375 5.8125 21.6875 C8.56351888 23.33811133 9.52484637 25.1972081 11 28 C9.35 27.67 7.7 27.34 6 27 C5.896875 26.360625 5.79375 25.72125 5.6875 25.0625 C5.3471875 24.0415625 5.3471875 24.0415625 5 23 C4.01 22.67 3.02 22.34 2 22 C0.875 16.375 0.875 16.375 2 13 C2.27345588 8.16894608 1.75882047 4.50697746 0 0 Z " fill="#6FBBD3" transform="translate(122,131)"/>
<path d="M0 0 C0.99 0 1.98 0 3 0 C3.433125 1.3921875 3.433125 1.3921875 3.875 2.8125 C4.8875 6.09791667 4.8875 6.09791667 7 9 C7.22705078 11.91088867 7.22705078 11.91088867 7.1953125 15.41796875 C7.18886719 16.67158203 7.18242187 17.92519531 7.17578125 19.21679688 C7.15902344 20.52712891 7.14226562 21.83746094 7.125 23.1875 C7.11496639 24.52277987 7.1058412 25.85806689 7.09765625 27.19335938 C7.07405292 30.46242015 7.04112594 33.73112028 7 37 C6.67 37 6.34 37 6 37 C5.98582031 35.73027344 5.97164063 34.46054688 5.95703125 33.15234375 C5.71779499 22.96941606 4.70878064 14.30735341 1.05859375 4.7734375 C0 2 0 2 0 0 Z " fill="#79BED6" transform="translate(407,82)"/>
<path d="M0 0 C0.66 0.33 1.32 0.66 2 1 C-1.66453973 7.13735923 -5.10502983 10.04895786 -11.828125 12.50390625 C-14 13 -14 13 -16 12 C-5.85799286 2.64022213 -5.85799286 2.64022213 0 0 Z " fill="#2DA4D3" transform="translate(296,24)"/>
<path d="M0 0 C3.12980956 3.60914976 4.60302488 7.56356765 6.1875 12 C6.45578613 12.74950928 6.72407227 13.49901855 7.00048828 14.27124023 C9.12234001 20.58223351 9.69209056 26.34824077 9 33 C7.01602763 29.62232803 6.57400106 26.6169071 6.125 22.75 C5.43208038 17.78869551 4.35961411 14.16694803 1.88671875 9.85546875 C0.36269496 6.66643219 0.24983891 3.49774479 0 0 Z " fill="#67B5CF" transform="translate(438,66)"/>
<path d="M0 0 C0.68352539 0.1429248 1.36705078 0.28584961 2.07128906 0.43310547 C10.67171682 2.06618835 19.02086574 2.23642681 27.75 2.125 C29.14061846 2.11493717 30.53124408 2.10581723 31.921875 2.09765625 C35.28143819 2.07432595 38.64062175 2.0415923 42 2 C38.03341803 4.18630502 34.39415423 4.43965248 29.9375 4.625 C29.17816162 4.66004639 28.41882324 4.69509277 27.63647461 4.73120117 C26.11820313 4.79774539 24.59971847 4.85961156 23.08105469 4.91650391 C21.31596196 4.98732297 19.5521851 5.08982793 17.7890625 5.19921875 C11.07282421 5.47826017 6.02693946 3.92849119 0 1 C0 0.67 0 0.34 0 0 Z " fill="#6AABC7" transform="translate(155,202)"/>
<path d="M0 0 C0.33 0 0.66 0 1 0 C1.08735463 4.54154478 1.14051247 9.08287232 1.1875 13.625 C1.22520508 15.55279297 1.22520508 15.55279297 1.26367188 17.51953125 C1.27817383 19.38544922 1.27817383 19.38544922 1.29296875 21.2890625 C1.3086792 22.43068848 1.32438965 23.57231445 1.34057617 24.74853516 C0.95723398 28.4082852 -0.1794943 30.82933839 -2 34 C-2.66 34 -3.32 34 -4 34 C-4.33 34.66 -4.66 35.32 -5 36 C-4.508203 33.40387932 -3.96135647 30.85487675 -3.28125 28.30078125 C-0.81933437 18.88395396 -0.31495725 9.67678993 0 0 Z " fill="#499FC2" transform="translate(414,101)"/>
<path d="M0 0 C0.99 0.495 0.99 0.495 2 1 C2.42549233 3.97253671 2.75138511 6.88701731 3 9.875 C3.13805698 11.51890076 3.28359918 13.16219428 3.4375 14.8046875 C3.49808594 15.53671387 3.55867188 16.26874023 3.62109375 17.02294922 C3.92700519 19.31102667 3.92700519 19.31102667 6 22 C5.66906957 24.79155827 4.79958861 27.29028304 4 30 C3.67 30 3.34 30 3 30 C2.48722171 26.87696198 1.99223175 23.75133678 1.5 20.625 C1.35691406 19.75488281 1.21382813 18.88476562 1.06640625 17.98828125 C0.12624029 11.94435724 -0.17771303 6.11299899 0 0 Z " fill="#6BB7D2" transform="translate(114,152)"/>
<path d="M0 0 C0.33 0.66 0.66 1.32 1 2 C0.67 2.99 0.34 3.98 0 5 C0.66 5.33 1.32 5.66 2 6 C1.67 8.31 1.34 10.62 1 13 C-0.32 13.33 -1.64 13.66 -3 14 C-4.59387042 10.81225917 -4.52663137 7.46072041 -4 4 C-2 1.5 -2 1.5 0 0 Z " fill="#379DC3" transform="translate(226,150)"/>
<path d="M0 0 C-0.309375 0.515625 -0.61875 1.03125 -0.9375 1.5625 C-2.29059287 4.66665423 -2.61359424 7.65115007 -3 11 C-6.53586014 7.82679218 -8.58578031 5.83256305 -9 1 C-5.64919071 -1.10976881 -3.77897651 -1.0497157 0 0 Z " fill="#60ADCB" transform="translate(96,109)"/>
<path d="M0 0 C0.66 0 1.32 0 2 0 C1.7834375 0.7425 1.7834375 0.7425 1.5625 1.5 C0.51985259 6.13398849 0 10.69898938 0 15.4375 C0 16.283125 0 17.12875 0 18 C-0.33 18.33 -0.66 18.66 -1 19 C-1.23075082 20.34747084 -1.41153063 21.70377565 -1.5625 23.0625 C-1.706875 24.361875 -1.85125 25.66125 -2 27 C-2.33 27 -2.66 27 -3 27 C-4.08036658 17.23765141 -4.50055132 9.00110265 0 0 Z " fill="#47A6CF" transform="translate(251,81)"/>
<path d="M0 0 C0.66 0 1.32 0 2 0 C2 0.66 2 1.32 2 2 C2.66 2 3.32 2 4 2 C4.33 2.66 4.66 3.32 5 4 C7.33744294 4.46806645 9.69739079 4.82669794 12.0625 5.125 C13.35285156 5.29257813 14.64320313 5.46015625 15.97265625 5.6328125 C16.97167969 5.75398437 17.97070312 5.87515625 19 6 C19 6.33 19 6.66 19 7 C16.9399629 7.25034126 14.87672534 7.47443346 12.8125 7.6875 C11.08966797 7.87892578 11.08966797 7.87892578 9.33203125 8.07421875 C5.57518743 7.99053759 3.91915928 7.3181559 1 5 C0.1875 2.3125 0.1875 2.3125 0 0 Z " fill="#54A6C6" transform="translate(163,185)"/>
<path d="M0 0 C7.80326294 0.39016315 13.92923365 2.75773658 21 6 C20.01 6.66 19.02 7.32 18 8 C18 7.34 18 6.68 18 6 C16.88625 5.87625 15.7725 5.7525 14.625 5.625 C9.69539009 5.01542458 4.85755745 4.02526315 0 3 C0 2.01 0 1.02 0 0 Z " fill="#4CADCE" transform="translate(371,14)"/>
<path d="M0 0 C0 0.66 0 1.32 0 2 C-6.54547997 4.13729958 -12.20304851 4.64774582 -19 3 C-19 2.34 -19 1.68 -19 1 C-16.77100213 0.83109082 -14.54179338 0.66496313 -12.3125 0.5 C-10.45044922 0.36078125 -10.45044922 0.36078125 -8.55078125 0.21875 C-5.68500671 0.04220063 -2.86900043 -0.04388528 0 0 Z " fill="#69B6D5" transform="translate(377,208)"/>
<path d="M0 0 C0 3 0 3 -1 4.625 C-4.0998412 6.75614082 -7.32294664 7.14090898 -11 7 C-13.55823426 6.24503237 -15.61601233 5.24166025 -18 4 C-18 3.67 -18 3.34 -18 3 C-12.72 3 -7.44 3 -2 3 C-2 2.34 -2 1.68 -2 1 C-1.34 0.67 -0.68 0.34 0 0 Z " fill="#6FB9D1" transform="translate(227,205)"/>
<path d="M0 0 C3.875 2.625 3.875 2.625 5 6 C5.67638944 12.87662594 5.67638944 12.87662594 3.8828125 15.85546875 C2.5 17.5 2.5 17.5 0 20 C-0.99 19.67 -1.98 19.34 -3 19 C-2.34 19 -1.68 19 -1 19 C-1 18.34 -1 17.68 -1 17 C-0.34 17 0.32 17 1 17 C1 16.01 1 15.02 1 14 C1.66 14 2.32 14 3 14 C2.67 10.7 2.34 7.4 2 4 C1.34 4 0.68 4 0 4 C0 2.68 0 1.36 0 0 Z " fill="#67AFC7" transform="translate(279,131)"/>
<path d="M0 0 C1.98 0.495 1.98 0.495 4 1 C4 1.99 4 2.98 4 4 C6.97 4.495 6.97 4.495 10 5 C8.21539237 7.25424122 7.40780894 7.94902388 4.5 8.3125 C2 8 2 8 -1 6 C-0.67 4.02 -0.34 2.04 0 0 Z " fill="#34A8D8" transform="translate(133,164)"/>
<path d="M0 0 C0.66 0 1.32 0 2 0 C2 0.99 2 1.98 2 3 C2.804375 2.67 3.60875 2.34 4.4375 2 C8.73804795 0.79282865 12.56966181 0.82278647 17 1 C17 1.33 17 1.66 17 2 C15.9275 2.12375 14.855 2.2475 13.75 2.375 C10.6168129 2.89719785 8.61350274 3.29117129 6 5 C5.67 5.66 5.34 6.32 5 7 C3.35 6.67 1.7 6.34 0 6 C0 4.02 0 2.04 0 0 Z " fill="#3BA5D2" transform="translate(250,110)"/>
<path d="M0 0 C3 1 3 1 4.25 2.8125 C5.11637742 5.33943414 4.88492145 6.52221994 4 9 C2.35 9.33 0.7 9.66 -1 10 C-1 9.34 -1 8.68 -1 8 C-0.34 8 0.32 8 1 8 C0.67 6.35 0.34 4.7 0 3 C-1.65 3.33 -3.3 3.66 -5 4 C-2.6875 1.9375 -2.6875 1.9375 0 0 Z " fill="#62AFC9" transform="translate(258,143)"/>
<path d="M0 0 C1.32 0 2.64 0 4 0 C7 5.75 7 5.75 7 8 C6.34 8 5.68 8 5 8 C4.67 8.99 4.34 9.98 4 11 C4 9.68 4 8.36 4 7 C2.02 6.34 0.04 5.68 -2 5 C-1.34 3.35 -0.68 1.7 0 0 Z " fill="#3FA2C7" transform="translate(118,131)"/>
<path d="M0 0 C3.3125 -0.3125 3.3125 -0.3125 7 0 C8.8125 2.25 8.8125 2.25 10 5 C10.391875 5.763125 10.78375 6.52625 11.1875 7.3125 C11.455625 7.869375 11.72375 8.42625 12 9 C10.71034824 10.37562854 9.37310707 11.70766393 8 13 C7.34 13 6.68 13 6 13 C6.33 9.37 6.66 5.74 7 2 C4.69 1.67 2.38 1.34 0 1 C0 0.67 0 0.34 0 0 Z " fill="#379FCB" transform="translate(230,152)"/>
<path d="M0 0 C0.61875 0.495 1.2375 0.99 1.875 1.5 C1.545 2.16 1.215 2.82 0.875 3.5 C0.31554687 3.17386719 -0.24390625 2.84773437 -0.8203125 2.51171875 C-6.31079925 0.10148813 -13.41482548 1.297858 -19.125 2.5 C-14.26460071 -2.82329446 -6.29383572 -3.02104115 0 0 Z " fill="#6CB4CD" transform="translate(300.125,158.5)"/>
<path d="M0 0 C0.58523438 0.13277344 1.17046875 0.26554688 1.7734375 0.40234375 C10.79617983 2.25837333 19.82225696 2.61633197 29 3 C29 3.33 29 3.66 29 4 C24.87501462 4.02892385 20.75005515 4.04677267 16.625 4.0625 C14.8615625 4.07506836 14.8615625 4.07506836 13.0625 4.08789062 C11.38027344 4.09272461 11.38027344 4.09272461 9.6640625 4.09765625 C8.10872803 4.10551147 8.10872803 4.10551147 6.52197266 4.11352539 C4 4 4 4 2 3 C2 2.34 2 1.68 2 1 C1.34 0.67 0.68 0.34 0 0 Z " fill="#5FB0CF" transform="translate(327,175)"/>
<path d="M0 0 C1.65 0 3.3 0 5 0 C5 0.66 5 1.32 5 2 C5.66 2 6.32 2 7 2 C8.48320272 5.83887763 9.22419163 8.06204091 8 12 C6.66382103 10.18959679 5.33112616 8.3766216 4 6.5625 C3.2575 5.55316406 2.515 4.54382813 1.75 3.50390625 C0 1 0 1 0 0 Z " fill="#57B0D2" transform="translate(93,120)"/>
<path d="M0 0 C0.33 0 0.66 0 1 0 C0.67 2.97 0.34 5.94 0 9 C-0.66 9 -1.32 9 -2 9 C-2.33 10.98 -2.66 12.96 -3 15 C-3.99 15 -4.98 15 -6 15 C-5.39644592 11.14974121 -4.23227397 8.13898841 -2.4375 4.6875 C-1.98246094 3.80449219 -1.52742188 2.92148437 -1.05859375 2.01171875 C-0.53458984 1.01591797 -0.53458984 1.01591797 0 0 Z " fill="#5AAFCD" transform="translate(259,61)"/>
<path d="M0 0 C7.31083385 -0.56237183 13.98872491 1.92784591 20 6 C16.67118282 7.10960573 16.12635748 6.9412896 12.98828125 5.78515625 C12.23095703 5.51123047 11.47363281 5.23730469 10.69335938 4.95507812 C9.90767578 4.66052734 9.12199219 4.36597656 8.3125 4.0625 C7.51521484 3.77181641 6.71792969 3.48113281 5.89648438 3.18164062 C3.92798243 2.46260698 1.96358188 1.73236297 0 1 C0 0.67 0 0.34 0 0 Z " fill="#68B7D7" transform="translate(137,204)"/>
<path d="M0 0 C0.33 0 0.66 0 1 0 C0.3741355 7.00435592 -0.28674095 14.00399099 -1 21 C-1.66 21 -2.32 21 -3 21 C-3.23191047 14.10710557 -3.11022849 7.6233449 -1 1 C-0.67 0.67 -0.34 0.34 0 0 Z " fill="#6CB3CC" transform="translate(283,91)"/>
<path d="M0 0 C0.66 0 1.32 0 2 0 C2.66 4.29 3.32 8.58 4 13 C3.01 13.33 2.02 13.66 1 14 C1 14.99 1 15.98 1 17 C0.01 16.67 -0.98 16.34 -2 16 C-1.67257813 15.29488281 -1.34515625 14.58976563 -1.0078125 13.86328125 C0.08400722 10.76132833 0.20385396 8.45993947 0.125 5.1875 C0.10695313 4.21167969 0.08890625 3.23585937 0.0703125 2.23046875 C0.04710938 1.49441406 0.02390625 0.75835937 0 0 Z " fill="#61B5D7" transform="translate(123,169)"/>
<path d="M0 0 C0.66 0.33 1.32 0.66 2 1 C1.814375 2.11375 1.62875 3.2275 1.4375 4.375 C0.68319343 7.82568861 0.68319343 7.82568861 2 10 C2.06950541 11.54023996 2.08452357 13.08334988 2.0625 14.625 C2.05347656 15.44226563 2.04445312 16.25953125 2.03515625 17.1015625 C2.02355469 17.72804687 2.01195312 18.35453125 2 19 C1.67 19 1.34 19 1 19 C1 16.36 1 13.72 1 11 C-0.32 10.67 -1.64 10.34 -3 10 C-2.01 6.7 -1.02 3.4 0 0 Z " fill="#6CB6D7" transform="translate(227,186)"/>
<path d="M0 0 C0.33 0.66 0.66 1.32 1 2 C1.66 2.33 2.32 2.66 3 3 C2.01 3.33 1.02 3.66 0 4 C-0.66 3.67 -1.32 3.34 -2 3 C-2 3.66 -2 4.32 -2 5 C-3.32 5 -4.64 5 -6 5 C-6 5.99 -6 6.98 -6 8 C-7.65 8 -9.3 8 -11 8 C-11.33 7.34 -11.66 6.68 -12 6 C-8.04 4.02 -4.08 2.04 0 0 Z " fill="#44A5CE" transform="translate(212,169)"/>
<path d="M0 0 C0.99 0.33 1.98 0.66 3 1 C3 1.66 3 2.32 3 3 C3.8353125 3.12375 3.8353125 3.12375 4.6875 3.25 C7.82238338 4.26671893 9.67448903 5.67448903 12 8 C12.3125 10.75 12.3125 10.75 12 13 C11.01 12.34 10.02 11.68 9 11 C9 10.34 9 9.68 9 9 C8.34 9 7.68 9 7 9 C6.938125 8.071875 6.938125 8.071875 6.875 7.125 C6.58625 6.42375 6.2975 5.7225 6 5 C3.00384054 3.6954344 3.00384054 3.6954344 0 3 C0 2.01 0 1.02 0 0 Z " fill="#5FB2D3" transform="translate(400,25)"/>
<path d="M0 0 C0.88429688 0.27457031 1.76859375 0.54914063 2.6796875 0.83203125 C3.56914062 1.09371094 4.45859375 1.35539063 5.375 1.625 C6.45394531 2.12966797 6.45394531 2.12966797 7.5546875 2.64453125 C7.8846875 3.63453125 8.2146875 4.62453125 8.5546875 5.64453125 C9.2146875 5.97453125 9.8746875 6.30453125 10.5546875 6.64453125 C4.79424538 6.03816892 -0.16545619 3.88794846 -5.4453125 1.64453125 C-2.4453125 -0.35546875 -2.4453125 -0.35546875 0 0 Z " fill="#72BDD8" transform="translate(310.4453125,203.35546875)"/>
<path d="M0 0 C2.02045442 0.60183749 4.02111039 1.27306096 6 2 C6.33 2.66 6.66 3.32 7 4 C9.01669827 5.13350534 9.01669827 5.13350534 11 6 C8.69 6 6.38 6 4 6 C3.67 6.66 3.34 7.32 3 8 C1.35 7.67 -0.3 7.34 -2 7 C-1.360625 6.71125 -0.72125 6.4225 -0.0625 6.125 C2.15206079 5.17176549 2.15206079 5.17176549 3 3 C2.01 2.67 1.02 2.34 0 2 C0 1.34 0 0.68 0 0 Z " fill="#32A1CC" transform="translate(150,172)"/>
<path d="M0 0 C1.65 0.33 3.3 0.66 5 1 C4.79375 1.61875 4.5875 2.2375 4.375 2.875 C4.25125 3.57625 4.1275 4.2775 4 5 C4.66 5.66 5.32 6.32 6 7 C3.69 7.66 1.38 8.32 -1 9 C-1.125 2.25 -1.125 2.25 0 0 Z " fill="#53B7DC" transform="translate(113,130)"/>
<path d="M0 0 C4.55665941 0.53607758 7.23345952 2.48897302 11 5 C13.7282504 5.78215588 13.7282504 5.78215588 16 6 C16 6.33 16 6.66 16 7 C9.8569122 7.54848998 6.61542058 6.67398815 1.46875 3.2890625 C0.9840625 2.86367187 0.499375 2.43828125 0 2 C0 1.34 0 0.68 0 0 Z " fill="#65B5D5" transform="translate(311,168)"/>
<path d="M0 0 C0.144375 0.639375 0.28875 1.27875 0.4375 1.9375 C1.28989171 5.06293628 2.08933409 5.05955606 5 7 C5 7.99 5 8.98 5 10 C2.69 9.67 0.38 9.34 -2 9 C-2.6875 6.75 -2.6875 6.75 -3 4 C-1.5625 1.6875 -1.5625 1.6875 0 0 Z " fill="#2BA5DA" transform="translate(95,111)"/>
<path d="M0 0 C2.50304378 3.75456567 2.45280074 5.54745934 2 10 C0.125 13.4375 0.125 13.4375 -2 16 C-2.66 16 -3.32 16 -4 16 C-4.66 14.68 -5.32 13.36 -6 12 C-4.125 10.9375 -4.125 10.9375 -2 10 C-1.34 10.33 -0.68 10.66 0 11 C0 7.37 0 3.74 0 0 Z " fill="#555354" transform="translate(127,71)"/>
<path d="M0 0 C0.99 0.33 1.98 0.66 3 1 C1.56771184 2.31818554 0.12897516 3.62936704 -1.3125 4.9375 C-2.11300781 5.66839844 -2.91351563 6.39929688 -3.73828125 7.15234375 C-6 9 -6 9 -9 10 C-9.33 9.01 -9.66 8.02 -10 7 C-8.68 7 -7.36 7 -6 7 C-6 6.01 -6 5.02 -6 4 C-4.68 3.67 -3.36 3.34 -2 3 C-2 2.34 -2 1.68 -2 1 C-1.34 0.67 -0.68 0.34 0 0 Z " fill="#64B1D1" transform="translate(247,185)"/>
<path d="M0 0 C1.35306884 4.05920652 -0.15400398 6.41865449 -1.8125 10.125 C-2.08642578 10.77082031 -2.36035156 11.41664063 -2.64257812 12.08203125 C-4.73415493 16.86707746 -4.73415493 16.86707746 -7 18 C-6.3436302 14.28508228 -5.34467543 10.85904561 -4.0625 7.3125 C-3.72347656 6.35988281 -3.38445312 5.40726563 -3.03515625 4.42578125 C-2 2 -2 2 0 0 Z " fill="#77BED5" transform="translate(250,133)"/>
<path d="M0 0 C0.99 0.33 1.98 0.66 3 1 C2.67 2.32 2.34 3.64 2 5 C1.34 5 0.68 5 0 5 C-0.103125 5.78375 -0.20625 6.5675 -0.3125 7.375 C-1 10 -1 10 -4 12 C-4 8 -4 8 -2 6 C-1.28591666 4.01643517 -0.61382258 2.01684563 0 0 Z " fill="#29A8DF" transform="translate(265,154)"/>
<path d="M0 0 C-0.33 0.66 -0.66 1.32 -1 2 C-7.08740907 3.99224297 -12.62971909 4.23496938 -19 4 C-19 3.67 -19 3.34 -19 3 C-16.39816412 2.30238463 -13.79416398 1.61662226 -11.1875 0.9375 C-10.08051758 0.63875977 -10.08051758 0.63875977 -8.95117188 0.33398438 C-3.33984375 -1.11328125 -3.33984375 -1.11328125 0 0 Z " fill="#6BB6D5" transform="translate(202,175)"/>
<path d="M0 0 C0.66 0.33 1.32 0.66 2 1 C1.0479279 2.00596297 0.08812654 3.00461563 -0.875 4 C-1.40867187 4.556875 -1.94234375 5.11375 -2.4921875 5.6875 C-4 7 -4 7 -6 7 C-6 7.66 -6 8.32 -6 9 C-8.31 9.33 -10.62 9.66 -13 10 C-10.84080034 7.67835272 -8.65644515 6.05870281 -5.9375 4.4375 C-3.62790849 3.05690619 -1.91494508 1.91494508 0 0 Z " fill="#70B8D1" transform="translate(388,163)"/>
<path d="M0 0 C0.99 0.33 1.98 0.66 3 1 C0.03 7.93 0.03 7.93 -3 15 C-3.33 15 -3.66 15 -4 15 C-3.50341703 9.33895411 -2.45489316 5.12325529 0 0 Z " fill="#69B5D1" transform="translate(289,75)"/>
<path d="M0 0 C1.32 0 2.64 0 4 0 C4 0.99 4 1.98 4 3 C4.99 3 5.98 3 7 3 C7.28875 3.804375 7.5775 4.60875 7.875 5.4375 C8.73262568 8.1326468 8.73262568 8.1326468 11 9 C10.34 9.66 9.68 10.32 9 11 C7.49703315 9.35687553 5.99769719 7.71042916 4.5 6.0625 C3.6646875 5.14597656 2.829375 4.22945313 1.96875 3.28515625 C0 1 0 1 0 0 Z " fill="#73BDD6" transform="translate(391,62)"/>
<path d="M0 0 C0 0.66 0 1.32 0 2 C-1.2375 2.12375 -2.475 2.2475 -3.75 2.375 C-6.92070736 2.76085328 -9.19204853 3.44002696 -12 5 C-12.99 5 -13.98 5 -15 5 C-14.5 3.0625 -14.5 3.0625 -13 1 C-8.62015065 0.13839029 -4.46429222 -0.13950913 0 0 Z " fill="#59B5D6" transform="translate(147,186)"/>
<path d="M0 0 C2.93447681 -0.34934248 5.14367502 -0.51495218 7.734375 1.04296875 C9.375 2.375 9.375 2.375 12 5 C12 5.66 12 6.32 12 7 C7.69235185 5.43358249 3.93828536 3.31663844 0 1 C0 0.67 0 0.34 0 0 Z " fill="#64B5D5" transform="translate(136,172)"/>
<path d="M0 0 C0.85178626 2.38500154 1.09806909 3.6665651 0.375 6.125 C-1.44504313 8.60687699 -3.0793463 9.14517453 -6 10 C-6.99 10 -7.98 10 -9 10 C-7.625 8.5 -7.625 8.5 -6 7 C-5.34 7 -4.68 7 -4 7 C-3.34 5.35 -2.68 3.7 -2 2 C-1.34 2 -0.68 2 0 2 C0 1.34 0 0.68 0 0 Z " fill="#6BB8D4" transform="translate(401,150)"/>
<path d="M0 0 C4.82029598 3.73572939 4.82029598 3.73572939 5.33203125 7.3359375 C5.31436669 9.5758033 5.21850902 11.77120799 5 14 C4.01 14.495 4.01 14.495 3 15 C2.92652344 14.12988281 2.92652344 14.12988281 2.8515625 13.2421875 C2.40350595 8.56076908 1.701979 4.42514541 0 0 Z " fill="#63ABC4" transform="translate(122,131)"/>
<path d="M0 0 C0.33 0 0.66 0 1 0 C1.29036649 3.38115651 1.44908891 6.62919149 1 10 C-1.5 12.625 -1.5 12.625 -4 14 C-4.66 13.67 -5.32 13.34 -6 13 C-4.625 11 -4.625 11 -3 9 C-2.34 9 -1.68 9 -1 9 C-0.67 6.03 -0.34 3.06 0 0 Z " fill="#3D99C4" transform="translate(273,121)"/>
<path d="M0 0 C5.94 0.99 5.94 0.99 12 2 C12 2.66 12 3.32 12 4 C14.97 4 17.94 4 21 4 C21 4.33 21 4.66 21 5 C13.0412201 5.54470737 7.18052459 4.48901845 0 1 C0 0.67 0 0.34 0 0 Z " fill="#69B5D5" transform="translate(155,202)"/>
<path d="M0 0 C1.33895632 1.66215268 2.67130142 3.32963607 4 5 C4.5775 5.721875 5.155 6.44375 5.75 7.1875 C7 9 7 9 7 11 C7.99 11.33 8.98 11.66 10 12 C9.67 12.66 9.34 13.32 9 14 C4.64116063 10.7066547 2.04360701 8.22255125 0 3 C0 2.01 0 1.02 0 0 Z " fill="#6DB3CF" transform="translate(275,178)"/>
<path d="M0 0 C-0.625 1.9375 -0.625 1.9375 -2 4 C-5.9631639 5.14491402 -9.03498506 5.04956278 -13 4 C-13 3.01 -13 2.02 -13 1 C-11.01432292 1.32552083 -9.02864583 1.65104167 -7.04296875 1.9765625 C-4.09972565 2.0103282 -2.93138377 0 0 0 Z " fill="#60B2CF" transform="translate(169,173)"/>
<path d="M0 0 C1.98 0 3.96 0 6 0 C3.95459571 2.64699379 2.78168025 3.05745257 -0.5625 3.9375 C-4.07252666 4.62958199 -4.07252666 4.62958199 -5.4375 7.125 C-5.623125 7.74375 -5.80875 8.3625 -6 9 C-5.67 7.02 -5.34 5.04 -5 3 C-3.68 3 -2.36 3 -1 3 C-0.67 2.01 -0.34 1.02 0 0 Z " fill="#74B7DB" transform="translate(247,155)"/>
<path d="M0 0 C0.99 0 1.98 0 3 0 C3.33 1.65 3.66 3.3 4 5 C2.03617993 6.50559539 0.21736634 7.89131683 -2 9 C-1.34 6.03 -0.68 3.06 0 0 Z " fill="#42A6CB" transform="translate(240,136)"/>
<path d="M0 0 C1.98 0 3.96 0 6 0 C5.67 1.65 5.34 3.3 5 5 C4.01 5 3.02 5 2 5 C1.67 6.32 1.34 7.64 1 9 C0.67 6.03 0.34 3.06 0 0 Z " fill="#33A3CB" transform="translate(106,135)"/>
<path d="M0 0 C0.33 0 0.66 0 1 0 C1.33 2.64 1.66 5.28 2 8 C4.51083114 6.74458443 4.87125446 5.49936512 6 3 C6.75 5.25 6.75 5.25 7 8 C5.0625 10.3125 5.0625 10.3125 3 12 C0.89366282 10.29171079 0.06198392 9.47851584 -0.29296875 6.73828125 C-0.25816406 5.93777344 -0.22335938 5.13726562 -0.1875 4.3125 C-0.16042969 3.50425781 -0.13335937 2.69601563 -0.10546875 1.86328125 C-0.07066406 1.24839844 -0.03585938 0.63351563 0 0 Z " fill="#616063" transform="translate(72,94)"/>
<path d="M0 0 C2.59184839 2.22637035 3.39896254 3.6201552 3.73046875 7.01171875 C3.81103516 7.76904297 3.89160156 8.52636719 3.97460938 9.30664062 C4.04486328 10.09232422 4.11511719 10.87800781 4.1875 11.6875 C4.26935547 12.48478516 4.35121094 13.28207031 4.43554688 14.10351562 C4.63550845 16.067844 4.81932254 18.03380412 5 20 C2.85111168 16.77666752 2.49826882 14.90429909 1.9375 11.125 C1.37180052 7.39418854 0.7702613 3.69452765 0 0 Z " fill="#30A3D0" transform="translate(441,79)"/>
<path d="M0 0 C0.80824219 0.28746094 1.61648437 0.57492188 2.44921875 0.87109375 C3.06410156 1.09925781 3.67898437 1.32742187 4.3125 1.5625 C4.3125 1.8925 4.3125 2.2225 4.3125 2.5625 C-0.1425 3.0575 -0.1425 3.0575 -4.6875 3.5625 C-5.0175 2.5725 -5.3475 1.5825 -5.6875 0.5625 C-6.3475 0.2325 -7.0075 -0.0975 -7.6875 -0.4375 C-4.20878379 -1.59707207 -3.34530355 -1.21206651 0 0 Z " fill="#36A2CE" transform="translate(158.6875,203.4375)"/>
<path d="M0 0 C6.98942918 -0.602537 6.98942918 -0.602537 9.8671875 1.11328125 C11.30861002 2.33745588 12.66278229 3.66278229 14 5 C13.01 5.33 12.02 5.66 11 6 C10.505 5.319375 10.505 5.319375 10 4.625 C6.9622157 2.15680026 3.80812939 1.81156856 0 1 C0 0.67 0 0.34 0 0 Z " fill="#63B0C8" transform="translate(169,172)"/>
<path d="M0 0 C0.33 0 0.66 0 1 0 C1.125 5.75 1.125 5.75 0 8 C-0.22467831 9.53668865 -0.40796805 11.07968054 -0.5625 12.625 C-0.64628906 13.44226563 -0.73007812 14.25953125 -0.81640625 15.1015625 C-0.87699219 15.72804688 -0.93757813 16.35453125 -1 17 C-1.33 17 -1.66 17 -2 17 C-2.05398987 14.72942623 -2.09278742 12.45848712 -2.125 10.1875 C-2.14820313 8.92292969 -2.17140625 7.65835938 -2.1953125 6.35546875 C-2 3 -2 3 0 0 Z " fill="#2EA4CF" transform="translate(281,93)"/>
<path d="M0 0 C4.54805635 -0.17835515 7.8794254 0.00214565 12 2 C11.67 2.66 11.34 3.32 11 4 C9.53984709 3.71758359 8.08190207 3.42373386 6.625 3.125 C5.81289062 2.96257812 5.00078125 2.80015625 4.1640625 2.6328125 C2 2 2 2 0 0 Z " fill="#77BCDA" transform="translate(178,192)"/>
<path d="M0 0 C0.33 0.99 0.66 1.98 1 3 C-1.80804268 5.96404505 -4.18315774 8.44499019 -8 10 C-5.61820737 6.25718301 -3.25524265 3.02272532 0 0 Z " fill="#4C4C4D" transform="translate(107,41)"/>
<path d="M0 0 C5.47057574 -0.51286648 10.19052272 1.59526136 15 4 C14.67 4.66 14.34 5.32 14 6 C9.38 4.35 4.76 2.7 0 1 C0 0.67 0 0.34 0 0 Z " fill="#69B5D6" transform="translate(148,179)"/>
<path d="M0 0 C0 3.34600063 -0.45959166 4.02314475 -2.375 6.625 C-2.81585938 7.23601563 -3.25671875 7.84703125 -3.7109375 8.4765625 C-5 10 -5 10 -7 11 C-6.68232368 5.59950264 -3.80003673 3.47662935 0 0 Z " fill="#7C7C7D" transform="translate(172,23)"/>
<path d="M0 0 C1.43655854 -0.08131463 2.8744483 -0.13933559 4.3125 -0.1875 C5.51326172 -0.23970703 5.51326172 -0.23970703 6.73828125 -0.29296875 C9.47851584 0.06198392 10.29171079 0.89366282 12 3 C7.83861737 3.08159574 4.0527516 2.98248524 0 2 C0 1.34 0 0.68 0 0 Z " fill="#54B0DC" transform="translate(358,209)"/>
<path d="M0 0 C0.99 0.33 1.98 0.66 3 1 C2.360625 1.226875 1.72125 1.45375 1.0625 1.6875 C-1.27193661 2.85250896 -1.27193661 2.85250896 -1.75 5.625 C-1.8325 6.40875 -1.915 7.1925 -2 8 C-2.99 8 -3.98 8 -5 8 C-2.25 1.125 -2.25 1.125 0 0 Z " fill="#29A7DF" transform="translate(252,175)"/>
<path d="M0 0 C2.2109885 0.42793326 3.98119242 0.99059621 6 2 C5.67 2.99 5.34 3.98 5 5 C3.35 4.67 1.7 4.34 0 4 C-0.33 3.01 -0.66 2.02 -1 1 C-0.67 0.67 -0.34 0.34 0 0 Z " fill="#29A8DD" transform="translate(147,173)"/>
<path d="M0 0 C1.43088528 2.86177057 0.59991697 4.93375773 0 8 C-1.65 8 -3.3 8 -5 8 C-5 7.34 -5 6.68 -5 6 C-4.34 6 -3.68 6 -3 6 C-2.87625 5.38125 -2.7525 4.7625 -2.625 4.125 C-2 2 -2 2 0 0 Z " fill="#2AA6DA" transform="translate(258,166)"/>
<path d="M0 0 C1.65 0 3.3 0 5 0 C6.15837626 4.05431692 5.83691257 6.21812119 4 10 C3 7 3 7 2.5625 5 C2.029376 2.70962954 2.029376 2.70962954 0 0 Z " fill="#6FB6D2" transform="translate(223,164)"/>
<path d="M0 0 C3.125 0.625 3.125 0.625 6 2 C6.875 4.125 6.875 4.125 7 6 C2 4 2 4 -3 2 C-2.01 1.34 -1.02 0.68 0 0 Z " fill="#6EB9D6" transform="translate(374,49)"/>
<path d="M0 0 C0 0.66 0 1.32 0 2 C-0.66 2 -1.32 2 -2 2 C-2.20625 2.61875 -2.4125 3.2375 -2.625 3.875 C-4.54775888 6.84653645 -6.66594527 7.13024659 -10 8 C-3.94594595 0 -3.94594595 0 0 0 Z " fill="#6DB7D1" transform="translate(290,29)"/>
<path d="M0 0 C2.31 0.66 4.62 1.32 7 2 C5 4 5 4 1.375 4.125 C0.26125 4.08375 -0.8525 4.0425 -2 4 C-2 3.34 -2 2.68 -2 2 C-1.34 2 -0.68 2 0 2 C0 1.34 0 0.68 0 0 Z " fill="#050406" transform="translate(187,5)"/>
<path d="M0 0 C0.66 0.33 1.32 0.66 2 1 C1.67 1.66 1.34 2.32 1 3 C1.66 3.33 2.32 3.66 3 4 C3 4.99 3 5.98 3 7 C2.34 7 1.68 7 1 7 C0.67 7.66 0.34 8.32 0 9 C-0.12375 8.030625 -0.2475 7.06125 -0.375 6.0625 C-0.58125 5.051875 -0.7875 4.04125 -1 3 C-1.66 2.67 -2.32 2.34 -3 2 C-2.01 1.34 -1.02 0.68 0 0 Z " fill="#75BFE1" transform="translate(214,190)"/>
<path d="M0 0 C0.66 0.99 1.32 1.98 2 3 C1.67 3.99 1.34 4.98 1 6 C0.01 6 -0.98 6 -2 6 C-3.69719127 6.94726954 -5.36935236 7.94228261 -7 9 C-6.8125 7.1875 -6.8125 7.1875 -6 5 C-3.5 3.375 -3.5 3.375 -1 2 C-0.67 1.34 -0.34 0.68 0 0 Z " fill="#49AFDC" transform="translate(265,161)"/>
<path d="M0 0 C0.33 1.65 0.66 3.3 1 5 C-0.65 5 -2.3 5 -4 5 C-4.33 3.68 -4.66 2.36 -5 1 C-2 0 -2 0 0 0 Z " fill="#25A5DC" transform="translate(258,146)"/>
<path d="M0 0 C0.33 0.99 0.66 1.98 1 3 C-0.1196986 4.00593243 -1.2459412 5.0045849 -2.375 6 C-3.00148438 6.556875 -3.62796875 7.11375 -4.2734375 7.6875 C-6 9 -6 9 -8 9 C-6.533292 5.13322435 -4.52798328 3.99014441 -1 2 C-0.67 1.34 -0.34 0.68 0 0 Z " fill="#5B5B5B" transform="translate(81,85)"/>
<path d="M0 0 C0.99 0 1.98 0 3 0 C2.34 1.32 1.68 2.64 1 4 C0.34 4 -0.32 4 -1 4 C-1.33 5.32 -1.66 6.64 -2 8 C-2.33 8 -2.66 8 -3 8 C-3 6.02 -3 4.04 -3 2 C-2.01 2 -1.02 2 0 2 C0 1.34 0 0.68 0 0 Z " fill="#76B7D4" transform="translate(295,68)"/>
<path d="M0 0 C0.99 0.495 0.99 0.495 2 1 C2 1.66 2 2.32 2 3 C2.99 3.33 3.98 3.66 5 4 C4.47731534 6.76276177 3.89130413 9.3260876 3 12 C0.60926555 8.17482487 0.44033448 4.40334476 0 0 Z " fill="#57B3DA" transform="translate(425,47)"/>
<path d="M0 0 C-2.50248865 1.66832577 -4.41149187 2.62381674 -7.1875 3.625 C-7.90292969 3.88539062 -8.61835938 4.14578125 -9.35546875 4.4140625 C-9.89816406 4.60742188 -10.44085938 4.80078125 -11 5 C-11 4.01 -11 3.02 -11 2 C-7.17679443 0.57741188 -4.08718695 -0.24042276 0 0 Z " fill="#6EB9D3" transform="translate(327,49)"/>
<path d="M0 0 C1.1875 1.5625 1.1875 1.5625 2 4 C0.625 7.75 0.625 7.75 -1 11 C-1.33 11 -1.66 11 -2 11 C-1.85957123 9.35369672 -1.71250671 7.70795821 -1.5625 6.0625 C-1.48128906 5.14597656 -1.40007812 4.22945312 -1.31640625 3.28515625 C-1 1 -1 1 0 0 Z " fill="#61B5D0" transform="translate(232,173)"/>
<path d="M0 0 C-3.16240582 2.10827055 -4.50657469 2.33817465 -8.1875 2.625 C-9.53908203 2.73714844 -9.53908203 2.73714844 -10.91796875 2.8515625 C-11.94857422 2.92503906 -11.94857422 2.92503906 -13 3 C-9.54666565 -0.45333435 -4.63654999 -1.85462 0 0 Z " fill="#95CCE1" transform="translate(329,13)"/>
<path d="M0 0 C1.65 0.33 3.3 0.66 5 1 C2.14521674 2.90318884 0.58058692 3.4619099 -2.6875 4.125 C-3.49574219 4.29257813 -4.30398438 4.46015625 -5.13671875 4.6328125 C-5.75160156 4.75398437 -6.36648438 4.87515625 -7 5 C-6.34 4.67 -5.68 4.34 -5 4 C-5 3.34 -5 2.68 -5 2 C-3.35 2 -1.7 2 0 2 C0 1.34 0 0.68 0 0 Z " fill="#81C0D8" transform="translate(384,204)"/>
<path d="M0 0 C0.66 0.33 1.32 0.66 2 1 C1.67 1.66 1.34 2.32 1 3 C-1.28515625 3.4140625 -1.28515625 3.4140625 -4.0625 3.625 C-5.44115234 3.73714844 -5.44115234 3.73714844 -6.84765625 3.8515625 C-7.55792969 3.90054688 -8.26820313 3.94953125 -9 4 C-9 3.01 -9 2.02 -9 1 C-7.700625 1.020625 -6.40125 1.04125 -5.0625 1.0625 C-3.70834367 1.08399454 -2.35243917 1.07148199 -1 1 C-0.67 0.67 -0.34 0.34 0 0 Z " fill="#30A4D4" transform="translate(378,205)"/>
<path d="M0 0 C0.763125 0.61875 1.52625 1.2375 2.3125 1.875 C4.99625809 4.05597052 4.99625809 4.05597052 8 6 C4.86650268 7.04449911 4.01031744 6.93423645 1 6 C0.67 4.02 0.34 2.04 0 0 Z " fill="#6CBBD3" transform="translate(138,163)"/>
<path d="M0 0 C0 3.86695678 -1.41909971 6.5088452 -3 10 C-4.32 9.67 -5.64 9.34 -7 9 C-6.401875 8.443125 -5.80375 7.88625 -5.1875 7.3125 C-3.0136554 5.01443571 -1.53101917 2.75583451 0 0 Z " fill="#76BAD2" transform="translate(258,162)"/>
<path d="M0 0 C1.39195915 4.17587745 -0.17676781 6.13474776 -2 10 C-2.33 10 -2.66 10 -3 10 C-3.36923077 4.58461538 -3.36923077 4.58461538 -1.5 1.625 C-1.005 1.08875 -0.51 0.5525 0 0 Z " fill="#6EB7D2" transform="translate(444,140)"/>
<path d="M0 0 C0.33 0 0.66 0 1 0 C1.33 1.98 1.66 3.96 2 6 C3.65 6.33 5.3 6.66 7 7 C7 7.33 7 7.66 7 8 C5.88625 7.979375 4.7725 7.95875 3.625 7.9375 C0.16784079 7.73619282 0.16784079 7.73619282 -2 9 C-1.34 6.03 -0.68 3.06 0 0 Z " fill="#6EBAD9" transform="translate(114,123)"/>
<path d="M0 0 C3.0916909 2.52956528 3.90931332 5.22454612 5 9 C4.01 9 3.02 9 2 9 C0.50178941 5.62902617 0 3.79557881 0 0 Z " fill="#65B4CF" transform="translate(432,56)"/>
<path d="M0 0 C0.66 0.33 1.32 0.66 2 1 C0.8125 3.4375 0.8125 3.4375 -1 6 C-3.6875 6.8125 -3.6875 6.8125 -6 7 C-4.71937515 5.2925002 -3.38232443 3.62626404 -2 2 C-1.34 2 -0.68 2 0 2 C0 1.34 0 0.68 0 0 Z " fill="#75BCD3" transform="translate(278,37)"/>
<path d="M0 0 C4.21912747 0.4794463 6.79663178 1.16625119 10 4 C9.01 4.33 8.02 4.66 7 5 C7 4.34 7 3.68 7 3 C4.36 2.67 1.72 2.34 -1 2 C-0.67 1.34 -0.34 0.68 0 0 Z " fill="#71BDD8" transform="translate(382,17)"/>
<path d="M0 0 C-3.00617269 3.00617269 -5.82381598 2.59585316 -10 3 C-10 2.34 -10 1.68 -10 1 C-6.52674819 -0.1577506 -3.63932552 -0.06866652 0 0 Z " fill="#77BFD7" transform="translate(208,209)"/>
<path d="M0 0 C0.33 0.66 0.66 1.32 1 2 C1.66 2.33 2.32 2.66 3 3 C2.34 3 1.68 3 1 3 C0.67 3.99 0.34 4.98 0 6 C-2.97 5.505 -2.97 5.505 -6 5 C-5.38125 4.54625 -4.7625 4.0925 -4.125 3.625 C-1.94080167 2.02891081 -1.94080167 2.02891081 0 0 Z " fill="#86C9E1" transform="translate(204,199)"/>
<path d="M0 0 C2.64 0.33 5.28 0.66 8 1 C6.68 1.99 5.36 2.98 4 4 C2.68 3.34 1.36 2.68 0 2 C0 1.34 0 0.68 0 0 Z " fill="#5DA9C9" transform="translate(230,194)"/>
<path d="M0 0 C0 0.66 0 1.32 0 2 C-2.31 2.33 -4.62 2.66 -7 3 C-6.67 2.01 -6.34 1.02 -6 0 C-3.50907189 -1.24546405 -2.58919267 -0.7767578 0 0 Z " fill="#5EB5D2" transform="translate(201,182)"/>
<path d="M0 0 C2.6875 0.875 2.6875 0.875 5 2 C4.67 2.99 4.34 3.98 4 5 C3.01 5 2.02 5 1 5 C1 4.34 1 3.68 1 3 C-0.32 2.67 -1.64 2.34 -3 2 C-2.01 1.34 -1.02 0.68 0 0 Z " fill="#4AB5DE" transform="translate(244,179)"/>
<path d="M0 0 C1.32 0.33 2.64 0.66 4 1 C4 1.66 4 2.32 4 3 C4.99 3 5.98 3 7 3 C7.33 3.99 7.66 4.98 8 6 C5 6 5 6 3.61328125 4.6875 C2.40885417 3.125 1.20442708 1.5625 0 0 Z " fill="#68B4D6" transform="translate(125,162)"/>
<path d="M0 0 C0.66 0 1.32 0 2 0 C2.309375 0.78375 2.61875 1.5675 2.9375 2.375 C3.92875038 4.92330128 3.92875038 4.92330128 5 7 C3.68 7 2.36 7 1 7 C-0.0625 5.1875 -0.0625 5.1875 -1 3 C-0.67 2.01 -0.34 1.02 0 0 Z " fill="#070306" transform="translate(112,80)"/>
<path d="M0 0 C2.00841268 0.01421885 4.01537247 0.13420475 6.01953125 0.265625 C2.51414568 2.22864092 -1.11398603 3.22464888 -4.98046875 4.265625 C-3.72152968 1.74774686 -2.88459378 0.38688832 0 0 Z " fill="#86C6DA" transform="translate(143.98046875,192.734375)"/>
<path d="M0 0 C6.15234375 0.5859375 6.15234375 0.5859375 8 1 C8.33 1.66 8.66 2.32 9 3 C6.03 2.67 3.06 2.34 0 2 C0 1.34 0 0.68 0 0 Z " fill="#2FA4CC" transform="translate(169,173)"/>
<path d="M0 0 C0.99 0.33 1.98 0.66 3 1 C2.34 2.65 1.68 4.3 1 6 C-0.32 5.34 -1.64 4.68 -3 4 C-3 3.34 -3 2.68 -3 2 C-2.01 2 -1.02 2 0 2 C0 1.34 0 0.68 0 0 Z " fill="#4FB5DF" transform="translate(308,165)"/>
<path d="M0 0 C2.475 0.495 2.475 0.495 5 1 C5.33 2.98 5.66 4.96 6 7 C5.34 7 4.68 7 4 7 C3.34 5.35 2.68 3.7 2 2 C1.34 2 0.68 2 0 2 C0 1.34 0 0.68 0 0 Z " fill="#49A2BF" transform="translate(268,113)"/>
<path d="M0 0 C1.10844919 3.32534757 0.84454356 5.62182575 0 9 C-0.33 8.34 -0.66 7.68 -1 7 C-1.66 7 -2.32 7 -3 7 C-2.38722388 4.03824877 -1.74627478 2.61941217 0 0 Z " fill="#66B3D5" transform="translate(264,53)"/>
<path d="M0 0 C1.98 1.65 3.96 3.3 6 5 C5 7 5 7 3 8 C3 6.68 3 5.36 3 4 C2.01 4 1.02 4 0 4 C0 2.68 0 1.36 0 0 Z " fill="#76C3DB" transform="translate(419,40)"/>
<path d="M0 0 C0.66 0.33 1.32 0.66 2 1 C0.35 2.98 -1.3 4.96 -3 7 C-3.66 6.67 -4.32 6.34 -5 6 C-3.63016497 2.83884224 -3.0109362 2.0072908 0 0 Z " fill="#309DD4" transform="translate(283,35)"/>
<path d="M0 0 C0.66 0.33 1.32 0.66 2 1 C0.35 2.65 -1.3 4.3 -3 6 C-3.99 5.34 -4.98 4.68 -6 4 C-4.02 2.68 -2.04 1.36 0 0 Z " fill="#62B5D4" transform="translate(296,24)"/>
<path d="M0 0 C1.98 0 3.96 0 6 0 C5.67 0.66 5.34 1.32 5 2 C4.01 2.33 3.02 2.66 2 3 C2 3.66 2 4.32 2 5 C1.01 5 0.02 5 -1 5 C-0.67 3.35 -0.34 1.7 0 0 Z " fill="#3BA4D1" transform="translate(402,192)"/>
<path d="M0 0 C1.32 0.66 2.64 1.32 4 2 C4 2.66 4 3.32 4 4 C4.66 4.33 5.32 4.66 6 5 C5.01 5.495 5.01 5.495 4 6 C2.35 4.35 0.7 2.7 -1 1 C-0.67 0.67 -0.34 0.34 0 0 Z " fill="#76BBDB" transform="translate(109,146)"/>
<path d="M0 0 C2 1.1875 2 1.1875 4 3 C4.25 5.6875 4.25 5.6875 4 8 C2 6.25 2 6.25 0 4 C0 2.68 0 1.36 0 0 Z " fill="#3FA0C6" transform="translate(428,52)"/>
<path d="M0 0 C1.98 0.99 3.96 1.98 6 3 C5.67 3.66 5.34 4.32 5 5 C3.68 5 2.36 5 1 5 C0.34 3.68 -0.32 2.36 -1 1 C-0.67 0.67 -0.34 0.34 0 0 Z " fill="#303032" transform="translate(167,31)"/>
</svg>
